<svg width="48" height="48" viewBox="0 0 48 48" fill="none" xmlns="http://www.w3.org/2000/svg">
<g filter="url(#filter0_d_382_101)">
<circle cx="24" cy="21" r="21" fill="white"/>
</g>
<path d="M29.0306 25.9695C29.1715 26.1104 29.2506 26.3015 29.2506 26.5007C29.2506 26.7 29.1715 26.8911 29.0306 27.032C28.8897 27.1729 28.6986 27.252 28.4993 27.252C28.3001 27.252 28.109 27.1729 27.9681 27.032L24 23.0626L20.0306 27.0307C19.8897 27.1716 19.6986 27.2508 19.4993 27.2508C19.3001 27.2508 19.109 27.1716 18.9681 27.0307C18.8272 26.8898 18.748 26.6987 18.748 26.4995C18.748 26.3002 18.8272 26.1091 18.9681 25.9682L22.9375 22.0001L18.9693 18.0307C18.8285 17.8898 18.7493 17.6987 18.7493 17.4995C18.7493 17.3002 18.8285 17.1091 18.9693 16.9682C19.1102 16.8273 19.3013 16.7482 19.5006 16.7482C19.6999 16.7482 19.891 16.8273 20.0318 16.9682L24 20.9376L27.9693 16.9676C28.1102 16.8267 28.3013 16.7476 28.5006 16.7476C28.6999 16.7476 28.891 16.8267 29.0318 16.9676C29.1727 17.1085 29.2519 17.2996 29.2519 17.4989C29.2519 17.6981 29.1727 17.8892 29.0318 18.0301L25.0625 22.0001L29.0306 25.9695Z" fill="black"/>
<defs>
<filter id="filter0_d_382_101" x="0" y="0" width="48" height="48" filterUnits="userSpaceOnUse" color-interpolation-filters="sRGB">
<feFlood flood-opacity="0" result="BackgroundImageFix"/>
<feColorMatrix in="SourceAlpha" type="matrix" values="0 0 0 0 0 0 0 0 0 0 0 0 0 0 0 0 0 0 127 0" result="hardAlpha"/>
<feOffset dy="3"/>
<feGaussianBlur stdDeviation="1.5"/>
<feComposite in2="hardAlpha" operator="out"/>
<feColorMatrix type="matrix" values="0 0 0 0 0 0 0 0 0 0 0 0 0 0 0 0 0 0 0.160784 0"/>
<feBlend mode="normal" in2="BackgroundImageFix" result="effect1_dropShadow_382_101"/>
<feBlend mode="normal" in="SourceGraphic" in2="effect1_dropShadow_382_101" result="shape"/>
</filter>
</defs>
</svg>
