<svg width="405" height="370" viewBox="0 0 405 370" fill="none" xmlns="http://www.w3.org/2000/svg">
<g filter="url(#filter0_d_317_148)">
<path d="M16.2837 321.485L15.7705 65.6318C15.7705 57.7121 209.227 129.267 262.256 118.661C315.286 108.056 389.257 124.397 389.257 135.442L389.257 321.485C389.257 332.531 380.303 341.485 369.257 341.485L36.2837 341.485C25.238 341.485 16.2837 332.531 16.2837 321.485Z" fill="#84AA44"/>
</g>
<path d="M136.466 285.685C136.466 286.045 136.526 286.385 136.646 286.705C136.766 287.025 136.926 287.305 137.146 287.545C137.346 287.785 137.606 287.965 137.926 288.085C138.226 288.225 138.566 288.285 138.926 288.285C139.286 288.285 139.626 288.225 139.946 288.085C140.266 287.965 140.526 287.785 140.766 287.545C141.006 287.305 141.186 287.025 141.326 286.705C141.466 286.385 141.546 286.045 141.546 285.685V282.805H138.926C138.566 282.805 138.226 282.885 137.926 283.025C137.606 283.165 137.346 283.365 137.146 283.625C136.926 283.885 136.766 284.185 136.646 284.545C136.526 284.905 136.466 285.285 136.466 285.685ZM142.046 288.705C141.646 289.065 141.206 289.345 140.706 289.545C140.186 289.745 139.666 289.845 139.106 289.845C138.446 289.845 137.846 289.745 137.306 289.505C136.746 289.265 136.286 288.945 135.886 288.545C135.486 288.145 135.186 287.685 134.966 287.165C134.746 286.645 134.646 286.085 134.646 285.485C134.646 284.905 134.746 284.345 134.986 283.825C135.206 283.305 135.506 282.865 135.906 282.485C136.306 282.105 136.766 281.805 137.286 281.585C137.806 281.365 138.346 281.245 138.946 281.245H143.406V287.025C143.406 287.505 143.466 287.805 143.606 287.925C143.726 288.045 143.906 288.105 144.146 288.105H145.466V289.665H144.126C143.606 289.665 143.186 289.565 142.846 289.365C142.506 289.165 142.246 288.945 142.046 288.705ZM136.926 278.445C136.926 278.125 137.026 277.865 137.266 277.625C137.486 277.405 137.746 277.285 138.066 277.285C138.386 277.285 138.646 277.405 138.886 277.625C139.106 277.865 139.226 278.125 139.226 278.445C139.226 278.765 139.106 279.025 138.886 279.245C138.646 279.485 138.386 279.585 138.066 279.585C137.746 279.585 137.486 279.485 137.266 279.245C137.026 279.025 136.926 278.765 136.926 278.445ZM140.006 278.445C140.006 278.125 140.106 277.865 140.346 277.625C140.566 277.405 140.826 277.285 141.146 277.285C141.466 277.285 141.726 277.405 141.966 277.625C142.186 277.865 142.306 278.125 142.306 278.445C142.306 278.765 142.186 279.025 141.966 279.245C141.726 279.485 141.466 279.585 141.146 279.585C140.826 279.585 140.566 279.485 140.346 279.245C140.106 279.025 140.006 278.765 140.006 278.445ZM149.69 286.745C149.69 287.225 149.79 287.565 149.99 287.785C150.19 288.005 150.53 288.105 151.05 288.105H152.33V289.665H151.69C151.13 289.665 150.61 289.585 150.15 289.425C149.69 289.265 149.29 288.945 148.97 288.465C148.65 288.905 148.25 289.205 147.77 289.385C147.29 289.585 146.81 289.665 146.29 289.665H145.11V288.105H145.69C146.13 288.105 146.47 288.065 146.75 287.985C147.03 287.905 147.25 287.785 147.41 287.625C147.57 287.465 147.67 287.225 147.73 286.945C147.79 286.665 147.83 286.325 147.83 285.925V282.125H149.69V286.745ZM145.99 292.445C145.99 292.125 146.09 291.865 146.33 291.625C146.55 291.405 146.81 291.285 147.13 291.285C147.45 291.285 147.71 291.405 147.95 291.625C148.17 291.865 148.29 292.125 148.29 292.445C148.29 292.765 148.17 293.025 147.95 293.245C147.71 293.485 147.45 293.585 147.13 293.585C146.81 293.585 146.55 293.485 146.33 293.245C146.09 293.025 145.99 292.765 145.99 292.445ZM149.07 292.445C149.07 292.125 149.17 291.865 149.41 291.625C149.63 291.405 149.89 291.285 150.21 291.285C150.53 291.285 150.79 291.405 151.03 291.625C151.25 291.865 151.37 292.125 151.37 292.445C151.37 292.765 151.25 293.025 151.03 293.245C150.79 293.485 150.53 293.585 150.21 293.585C149.89 293.585 149.63 293.485 149.41 293.245C149.17 293.025 149.07 292.765 149.07 292.445ZM166.586 288.465C166.266 288.905 165.866 289.205 165.406 289.385C164.926 289.585 164.446 289.665 163.946 289.665C163.386 289.665 162.866 289.585 162.406 289.425C161.946 289.265 161.546 288.945 161.226 288.465C160.906 288.905 160.506 289.205 160.026 289.385C159.546 289.585 159.066 289.665 158.546 289.665C157.986 289.665 157.466 289.585 157.006 289.425C156.546 289.265 156.146 288.945 155.826 288.465C155.506 288.905 155.106 289.205 154.626 289.385C154.146 289.585 153.666 289.665 153.146 289.665H151.966V288.105H152.546C152.986 288.105 153.326 288.065 153.606 287.985C153.886 287.905 154.106 287.785 154.266 287.625C154.426 287.465 154.526 287.225 154.586 286.945C154.646 286.665 154.686 286.325 154.686 285.925V282.125H156.546V286.745C156.546 287.225 156.646 287.565 156.846 287.785C157.046 288.005 157.386 288.105 157.906 288.105H157.946C158.386 288.105 158.726 288.065 159.006 287.985C159.286 287.905 159.506 287.785 159.666 287.625C159.826 287.465 159.926 287.225 159.986 286.945C160.046 286.665 160.086 286.325 160.086 285.925V282.125H161.946V286.745C161.946 287.225 162.046 287.565 162.246 287.785C162.446 288.005 162.786 288.105 163.306 288.105C163.746 288.105 164.086 288.065 164.366 287.985C164.646 287.905 164.866 287.785 165.026 287.625C165.186 287.465 165.286 287.225 165.346 286.945C165.406 286.665 165.446 286.325 165.446 285.925V282.125H167.306V286.745C167.306 287.225 167.406 287.565 167.606 287.785C167.806 288.005 168.146 288.105 168.666 288.105H169.946V289.665H169.306C168.746 289.665 168.226 289.585 167.766 289.425C167.306 289.265 166.906 288.945 166.586 288.465ZM169.583 288.105H171.903C171.583 287.745 171.343 287.345 171.183 286.885C171.023 286.425 170.943 285.945 170.943 285.425C170.943 284.845 171.043 284.285 171.263 283.765C171.483 283.245 171.783 282.765 172.183 282.365C172.583 281.965 173.043 281.665 173.603 281.425C174.143 281.185 174.743 281.065 175.403 281.065C175.983 281.065 176.543 281.185 177.063 281.425C177.583 281.665 178.023 281.965 178.423 282.365C178.823 282.765 179.123 283.245 179.363 283.765C179.583 284.285 179.703 284.845 179.703 285.425V288.105H181.323V289.665H169.583V288.105ZM172.763 285.225C172.763 286.065 172.963 286.745 173.403 287.265C173.823 287.805 174.383 288.085 175.103 288.105H177.843V285.225C177.843 284.865 177.763 284.525 177.623 284.205C177.483 283.885 177.303 283.625 177.063 283.385C176.823 283.145 176.563 282.965 176.243 282.825C175.923 282.705 175.583 282.625 175.223 282.625C174.863 282.625 174.523 282.705 174.223 282.825C173.903 282.965 173.643 283.145 173.443 283.385C173.223 283.625 173.063 283.885 172.943 284.205C172.823 284.525 172.763 284.865 172.763 285.225ZM174.383 278.445C174.383 278.125 174.483 277.865 174.723 277.625C174.943 277.405 175.203 277.285 175.523 277.285C175.843 277.285 176.103 277.405 176.343 277.625C176.563 277.865 176.683 278.125 176.683 278.445C176.683 278.765 176.563 279.025 176.343 279.245C176.103 279.485 175.843 279.585 175.523 279.585C175.203 279.585 174.943 279.485 174.723 279.245C174.483 279.025 174.383 278.765 174.383 278.445ZM183.689 282.125H185.549V286.065C185.549 286.705 185.449 287.265 185.249 287.705C185.049 288.165 184.809 288.545 184.489 288.825C184.169 289.105 183.809 289.325 183.409 289.465C183.009 289.605 182.589 289.665 182.149 289.665H180.969V288.105H181.549C181.989 288.105 182.329 288.065 182.609 287.985C182.889 287.905 183.109 287.785 183.269 287.625C183.429 287.465 183.529 287.225 183.589 286.945C183.649 286.665 183.689 286.325 183.689 285.925V282.125ZM183.389 278.445C183.389 278.125 183.489 277.865 183.729 277.625C183.949 277.405 184.209 277.285 184.529 277.285C184.849 277.285 185.109 277.405 185.349 277.625C185.569 277.865 185.689 278.125 185.689 278.445C185.689 278.765 185.569 279.025 185.349 279.245C185.109 279.485 184.849 279.585 184.529 279.585C184.209 279.585 183.949 279.485 183.729 279.245C183.489 279.025 183.389 278.765 183.389 278.445ZM193.713 285.925C193.713 286.325 193.733 286.665 193.793 286.945C193.853 287.225 193.973 287.465 194.133 287.625C194.293 287.785 194.493 287.905 194.773 287.985C195.053 288.065 195.413 288.105 195.853 288.105H202.993C203.433 288.105 203.773 288.065 204.053 287.985C204.333 287.905 204.553 287.785 204.713 287.625C204.873 287.465 204.973 287.225 205.033 286.945C205.093 286.665 205.133 286.325 205.133 285.925V282.125H206.993V286.065C206.993 286.705 206.893 287.265 206.693 287.705C206.493 288.165 206.253 288.545 205.933 288.825C205.613 289.105 205.253 289.325 204.853 289.465C204.453 289.605 204.033 289.665 203.593 289.665H195.253C194.813 289.665 194.373 289.605 193.973 289.465C193.573 289.325 193.213 289.105 192.893 288.825C192.573 288.545 192.333 288.165 192.133 287.705C191.933 287.265 191.853 286.705 191.853 286.065V282.125H193.713V285.925ZM197.033 278.445C197.033 278.125 197.133 277.865 197.373 277.625C197.593 277.405 197.853 277.285 198.173 277.285C198.493 277.285 198.753 277.405 198.993 277.625C199.213 277.865 199.333 278.125 199.333 278.445C199.333 278.765 199.213 279.025 198.993 279.245C198.753 279.485 198.493 279.585 198.173 279.585C197.853 279.585 197.593 279.485 197.373 279.245C197.133 279.025 197.033 278.765 197.033 278.445ZM200.113 278.445C200.113 278.125 200.213 277.865 200.453 277.625C200.673 277.405 200.933 277.285 201.253 277.285C201.573 277.285 201.833 277.405 202.073 277.625C202.293 277.865 202.413 278.125 202.413 278.445C202.413 278.765 202.293 279.025 202.073 279.245C201.833 279.485 201.573 279.585 201.253 279.585C200.933 279.585 200.673 279.485 200.453 279.245C200.213 279.025 200.113 278.765 200.113 278.445ZM209.598 289.665V273.845H211.458V289.665H209.598ZM214.071 293.885C213.711 293.885 213.451 293.885 213.291 293.845C213.131 293.805 213.011 293.785 212.951 293.745V292.165C212.991 292.185 213.071 292.205 213.171 292.205C213.271 292.225 213.391 292.225 213.551 292.225H214.271C214.751 292.225 215.091 292.105 215.291 291.865C215.471 291.625 215.571 291.265 215.571 290.825V282.125H217.451V290.905C217.451 291.785 217.211 292.505 216.751 293.065C216.271 293.625 215.631 293.885 214.791 293.885H214.071ZM221.907 285.925C221.907 286.325 221.927 286.665 221.987 286.945C222.047 287.225 222.167 287.465 222.327 287.625C222.487 287.785 222.687 287.905 222.967 287.985C223.247 288.065 223.607 288.105 224.047 288.105H224.447L224.467 289.665H223.447C223.007 289.665 222.567 289.605 222.167 289.465C221.767 289.325 221.407 289.105 221.087 288.825C220.767 288.545 220.527 288.165 220.327 287.705C220.127 287.265 220.047 286.705 220.047 286.065V273.845H221.907V285.925ZM238.734 288.465C238.414 288.905 238.014 289.205 237.554 289.385C237.074 289.585 236.594 289.665 236.094 289.665C235.534 289.665 235.014 289.585 234.554 289.425C234.094 289.265 233.694 288.945 233.374 288.465C233.054 288.905 232.654 289.205 232.174 289.385C231.694 289.585 231.214 289.665 230.694 289.665C230.134 289.665 229.614 289.585 229.154 289.425C228.694 289.265 228.294 288.945 227.974 288.465C227.654 288.905 227.254 289.205 226.774 289.385C226.294 289.585 225.814 289.665 225.294 289.665H224.114V288.105H224.694C225.134 288.105 225.474 288.065 225.754 287.985C226.034 287.905 226.254 287.785 226.414 287.625C226.574 287.465 226.674 287.225 226.734 286.945C226.794 286.665 226.834 286.325 226.834 285.925V282.125H228.694V286.745C228.694 287.225 228.794 287.565 228.994 287.785C229.194 288.005 229.534 288.105 230.054 288.105H230.094C230.534 288.105 230.874 288.065 231.154 287.985C231.434 287.905 231.654 287.785 231.814 287.625C231.974 287.465 232.074 287.225 232.134 286.945C232.194 286.665 232.234 286.325 232.234 285.925V282.125H234.094V286.745C234.094 287.225 234.194 287.565 234.394 287.785C234.594 288.005 234.934 288.105 235.454 288.105C235.894 288.105 236.234 288.065 236.514 287.985C236.794 287.905 237.014 287.785 237.174 287.625C237.334 287.465 237.434 287.225 237.494 286.945C237.554 286.665 237.594 286.325 237.594 285.925V282.125H239.454V286.745C239.454 287.225 239.554 287.565 239.754 287.785C239.954 288.005 240.294 288.105 240.814 288.105H242.094V289.665H241.454C240.894 289.665 240.374 289.585 239.914 289.425C239.454 289.265 239.054 288.945 238.734 288.465ZM230.514 278.425C230.514 278.105 230.614 277.845 230.854 277.605C231.074 277.385 231.334 277.265 231.654 277.265C231.974 277.265 232.234 277.385 232.474 277.605C232.694 277.845 232.814 278.105 232.814 278.425C232.814 278.745 232.694 279.005 232.474 279.225C232.234 279.465 231.974 279.565 231.654 279.565C231.334 279.565 231.074 279.465 230.854 279.225C230.614 279.005 230.514 278.745 230.514 278.425ZM233.594 278.425C233.594 278.105 233.694 277.845 233.934 277.605C234.154 277.385 234.414 277.265 234.734 277.265C235.054 277.265 235.314 277.385 235.554 277.605C235.774 277.845 235.894 278.105 235.894 278.425C235.894 278.745 235.774 279.005 235.554 279.225C235.314 279.465 235.054 279.565 234.734 279.565C234.414 279.565 234.154 279.465 233.934 279.225C233.694 279.005 233.594 278.745 233.594 278.425ZM231.974 275.865C231.974 275.545 232.074 275.285 232.314 275.045C232.534 274.825 232.794 274.705 233.114 274.705C233.434 274.705 233.694 274.825 233.934 275.045C234.154 275.285 234.274 275.545 234.274 275.865C234.274 276.185 234.154 276.445 233.934 276.665C233.694 276.905 233.434 277.005 233.114 277.005C232.794 277.005 232.534 276.905 232.314 276.665C232.074 276.445 231.974 276.185 231.974 275.865ZM246.311 286.745C246.311 287.225 246.411 287.565 246.611 287.785C246.811 288.005 247.151 288.105 247.671 288.105H248.951V289.665H248.311C247.751 289.665 247.231 289.585 246.771 289.425C246.311 289.265 245.911 288.945 245.591 288.465C245.271 288.905 244.871 289.205 244.391 289.385C243.911 289.585 243.431 289.665 242.911 289.665H241.731V288.105H242.311C242.751 288.105 243.091 288.065 243.371 287.985C243.651 287.905 243.871 287.785 244.031 287.625C244.191 287.465 244.291 287.225 244.351 286.945C244.411 286.665 244.451 286.325 244.451 285.925V282.125H246.311V286.745ZM242.731 278.445C242.731 278.125 242.831 277.865 243.071 277.625C243.291 277.405 243.551 277.285 243.871 277.285C244.191 277.285 244.451 277.405 244.691 277.625C244.911 277.865 245.031 278.125 245.031 278.445C245.031 278.765 244.911 279.025 244.691 279.245C244.451 279.485 244.191 279.585 243.871 279.585C243.551 279.585 243.291 279.485 243.071 279.245C242.831 279.025 242.731 278.765 242.731 278.445ZM245.811 278.445C245.811 278.125 245.911 277.865 246.151 277.625C246.371 277.405 246.631 277.285 246.951 277.285C247.271 277.285 247.531 277.405 247.771 277.625C247.991 277.865 248.111 278.125 248.111 278.445C248.111 278.765 247.991 279.025 247.771 279.245C247.531 279.485 247.271 279.585 246.951 279.585C246.631 279.585 246.371 279.485 246.151 279.245C245.911 279.025 245.811 278.765 245.811 278.445ZM254.567 288.105C255.007 288.105 255.347 288.065 255.627 287.985C255.907 287.905 256.127 287.785 256.287 287.625C256.447 287.465 256.547 287.225 256.607 286.945C256.667 286.665 256.707 286.325 256.707 285.925V282.125H258.567V286.745C258.567 287.225 258.667 287.565 258.867 287.785C259.067 288.005 259.407 288.105 259.927 288.105C260.367 288.105 260.707 288.065 260.987 287.985C261.267 287.905 261.487 287.785 261.647 287.625C261.807 287.465 261.907 287.225 261.967 286.945C262.027 286.665 262.067 286.325 262.067 285.925V282.125H263.927V286.065C263.927 286.705 263.827 287.245 263.647 287.685C263.447 288.145 263.207 288.525 262.887 288.805C262.567 289.105 262.207 289.325 261.807 289.465C261.407 289.605 260.987 289.665 260.567 289.665C260.007 289.665 259.487 289.585 259.027 289.425C258.567 289.265 258.167 288.945 257.847 288.465C257.527 288.905 257.127 289.205 256.647 289.385C256.167 289.585 255.687 289.665 255.167 289.665C254.607 289.665 254.087 289.585 253.627 289.425C253.167 289.265 252.767 288.945 252.447 288.465C252.127 288.905 251.727 289.205 251.247 289.385C250.767 289.585 250.287 289.665 249.767 289.665H248.587V288.105H249.167C249.607 288.105 249.947 288.065 250.227 287.985C250.507 287.905 250.727 287.785 250.887 287.625C251.047 287.465 251.147 287.225 251.207 286.945C251.267 286.665 251.307 286.325 251.307 285.925V282.125H253.167V286.745C253.167 287.225 253.267 287.565 253.467 287.785C253.667 288.005 254.007 288.105 254.527 288.105H254.567ZM266.59 289.665V273.845H268.45V289.665H266.59Z" fill="white"/>
<path d="M211.241 33.0695C220.283 26.3899 233.013 23.8293 242.974 29.0403C231.76 33.9091 222.63 42.5873 217.199 53.5396C215.12 57.771 213.248 62.6939 208.958 64.6495C206.289 65.8664 203.138 65.6314 200.374 64.6489C197.61 63.6662 195.151 61.9969 192.727 60.3453L192 60.2578C196.314 49.8773 202.198 39.7491 211.241 33.0695Z" fill="#F0F0F0"/>
<path d="M242.894 29.2623C233.593 29.5536 224.621 32.7681 217.252 38.4489C215.644 39.6437 214.234 41.0845 213.074 42.7183C211.996 44.3463 211.374 46.2334 211.271 48.1833C211.14 49.9995 211.215 51.8726 210.644 53.6251C210.026 55.4309 208.667 56.8869 206.908 57.6275C204.765 58.5962 202.401 58.737 200.085 58.7944C197.513 58.8581 194.841 58.8835 192.503 60.0944C192.219 60.2411 192.008 59.7928 192.291 59.6463C196.36 57.5396 201.115 58.9141 205.391 57.6603C207.387 57.0753 209.218 55.8853 210.02 53.8943C210.72 52.1533 210.644 50.2217 210.761 48.3816C210.833 46.4779 211.37 44.6207 212.325 42.9723C213.398 41.2848 214.75 39.792 216.323 38.5581C219.821 35.7235 223.743 33.4565 227.945 31.8402C232.731 29.969 237.801 28.9301 242.937 28.7687C243.255 28.7588 243.209 29.2525 242.894 29.2623Z" fill="white"/>
<path d="M219.517 36.48C217.895 33.6591 218.556 30.0785 221.077 28.0221C221.325 27.8215 221.649 28.197 221.4 28.3979C219.048 30.3092 218.439 33.6497 219.965 36.2685C220.125 36.5441 219.676 36.7541 219.517 36.48Z" fill="white"/>
<path d="M211.217 47.2541C214.318 48.121 217.633 47.787 220.499 46.3188C220.783 46.1731 220.994 46.6213 220.711 46.7668C217.725 48.2892 214.275 48.6298 211.049 47.7205C210.742 47.6335 210.911 47.1677 211.217 47.2541Z" fill="white"/>
<path d="M232.707 30.625C233.101 31.8271 234.072 32.7508 235.293 33.083C235.601 33.166 235.432 33.6318 235.125 33.5494C233.779 33.1762 232.706 32.1601 232.259 30.8365C232.205 30.7126 232.257 30.5683 232.377 30.5067C232.501 30.4491 232.648 30.5018 232.707 30.625Z" fill="white"/>
<path d="M250.871 66.2742C250.677 66.2279 250.483 66.1816 250.286 66.138C247.674 65.5289 245.018 65.1329 242.342 64.954C242.135 64.9369 241.926 64.9226 241.719 64.9115C235.268 64.5493 228.806 65.3879 222.661 67.3846C220.217 68.1813 217.836 69.163 215.541 70.3209C212.371 71.9202 209.061 73.9065 205.648 74.3521C205.292 74.4026 204.934 74.431 204.575 74.4372L191.949 61.1517C191.936 61.1072 191.919 61.0653 191.905 61.0205L191.377 60.5132C191.491 60.4452 191.611 60.3771 191.725 60.3091C191.791 60.2694 191.86 60.2326 191.926 60.1929C191.971 60.1674 192.016 60.142 192.056 60.1164C192.07 60.1078 192.086 60.0994 192.097 60.0937C192.137 60.0681 192.176 60.0485 192.212 60.0257C192.881 59.6434 193.554 59.2652 194.231 58.891C194.234 58.8881 194.234 58.8881 194.24 58.8882C199.406 56.0501 204.854 53.6183 210.497 52.0907C210.667 52.0448 210.84 51.9958 211.015 51.956C213.563 51.2816 216.162 50.8165 218.785 50.5653C220.222 50.4325 221.665 50.3725 223.108 50.3855C226.837 50.4264 230.536 51.0534 234.07 52.2438C241.114 54.6177 247.321 59.2181 250.624 65.7709C250.708 65.9384 250.789 66.1036 250.871 66.2742Z" fill="#F0F0F0"/>
<path d="M250.674 66.4041C243.073 61.0373 233.974 58.202 224.67 58.3009C222.666 58.2866 220.673 58.5883 218.764 59.1947C216.923 59.8455 215.29 60.9774 214.034 62.4728C212.835 63.8436 211.768 65.3846 210.257 66.4402C208.676 67.5098 206.714 67.854 204.864 67.3862C202.569 66.8693 200.597 65.5587 198.714 64.2101C196.622 62.7127 194.473 61.1242 191.877 60.6829C191.562 60.6295 191.664 60.1445 191.978 60.1979C196.495 60.9656 199.464 64.9258 203.633 66.4995C205.579 67.2338 207.757 67.3863 209.596 66.279C211.204 65.3107 212.306 63.7226 213.507 62.3241C214.711 60.8473 216.258 59.6876 218.013 58.9464C219.885 58.2448 221.863 57.8669 223.862 57.8289C228.362 57.6717 232.858 58.2229 237.187 59.4623C242.134 60.8495 246.808 63.0729 251.006 66.0361C251.266 66.2196 250.932 66.5864 250.674 66.4041Z" fill="white"/>
<path d="M227.664 58.0932C228.067 54.8643 230.75 52.4032 234.002 52.2795C234.32 52.2685 234.353 52.763 234.034 52.774C231.004 52.8837 228.507 55.184 228.149 58.1941C228.111 58.5106 227.626 58.4079 227.664 58.0932Z" fill="white"/>
<path d="M214.55 61.698C216.505 64.2576 219.352 65.9866 222.525 66.54C222.839 66.5946 222.738 67.0796 222.424 67.0251C219.124 66.443 216.164 64.6378 214.136 61.9697C213.943 61.7153 214.358 61.4449 214.55 61.698Z" fill="white"/>
<path d="M241.72 61.3603C241.31 62.5571 241.53 63.8795 242.304 64.8796C242.501 65.1315 242.085 65.4015 241.89 65.1513C241.04 64.0429 240.795 62.5852 241.235 61.2595C241.266 61.1282 241.395 61.0441 241.528 61.0673C241.661 61.0958 241.747 61.2265 241.72 61.3603Z" fill="white"/>
<path d="M208.855 43.0061H207.876V16.2021C207.876 7.63416 200.931 0.688477 192.363 0.688477H135.574C127.006 0.688477 120.061 7.63416 120.061 16.2021V163.252C120.061 171.82 127.006 178.766 135.574 178.766L192.363 178.766C200.931 178.766 207.876 171.82 207.876 163.252V62.0858H208.855L208.855 43.0061Z" fill="#3F3D56"/>
<path d="M192.989 4.72461H185.576C186.269 6.42183 186.07 8.35226 185.048 9.87358C184.026 11.3949 182.313 12.3074 180.48 12.3076H147.947C146.114 12.3076 144.401 11.3951 143.379 9.87392C142.356 8.35226 142.158 6.4218 142.851 4.72461H135.927C129.528 4.72461 124.341 9.91156 124.341 16.31V163.144C124.341 169.543 129.528 174.73 135.927 174.73H192.989C199.387 174.73 204.574 169.543 204.574 163.144V16.3097C204.574 9.91168 199.387 4.72476 192.989 4.72461Z" fill="white"/>
<path d="M165.554 127.561C157.068 127.569 148.926 124.201 142.926 118.201C136.925 112.2 133.557 104.059 133.565 95.5722C133.553 83.5404 140.302 72.5226 151.027 67.0679C158.728 63.1496 167.686 62.5068 175.868 65.2851C190.681 70.3329 199.669 85.3561 197.112 100.796C194.555 116.235 181.204 127.559 165.554 127.561ZM165.554 64.8375C160.701 64.8232 155.915 65.9711 151.597 68.1852C141.307 73.4281 134.824 83.997 134.815 95.5458C134.805 107.095 141.271 117.674 151.552 122.934C161.834 128.193 174.196 127.246 183.556 120.48C185.216 119.282 186.751 117.92 188.137 116.415C196.425 107.448 198.616 94.4237 193.719 83.2384C188.821 72.0529 177.765 64.8293 165.554 64.8375Z" fill="#F0F0F0"/>
<path d="M96.2384 67.1826C98.0159 67.4054 99.6033 68.4042 100.574 69.91C101.544 71.4159 101.797 73.2742 101.266 74.9849L111.894 83.8381L108.09 91.6093L93.2561 78.8961C90.3782 77.7883 88.7837 74.703 89.5446 71.7146C90.3056 68.7263 93.1811 66.7791 96.2384 67.1826Z" fill="#FFB6B6"/>
<path d="M195.503 104.103C195.29 101.812 194.408 97.6925 193.661 96.1694C191.362 90.153 176.51 85.2083 174.515 84.5708L174.009 78.9465L153.373 76.7261L150.755 83.9184L143.354 86.695C142.337 87.0745 141.542 87.8889 141.188 88.9155L134.548 90.8348L127.995 92.7291L105.231 76.6885L104.156 77.391L96.972 82.0785L95.8638 82.8019L125.323 109.38L136.266 106.813L144.496 104.877L145.198 107.728L143.379 117.747C154.265 128.637 171.447 130.01 183.924 120.988L188.599 116.84C191.857 113.317 194.262 109.092 195.628 104.492L195.503 104.103Z" fill="#E4E4E4"/>
<circle cx="167.011" cy="78.397" r="14.8582" transform="rotate(-18.3192 167.011 78.397)" fill="#FFB6B6"/>
<path d="M153.769 41.0829C155.213 39.02 157.381 37.5761 159.841 37.0381C162.274 36.5378 164.805 37.0022 166.902 38.3332C169.182 37.4149 171.64 36.8056 174.055 37.1153C176.47 37.4251 178.837 38.774 179.954 40.9964C180.189 41.5721 180.474 42.126 180.806 42.6517C181.791 43.9652 183.621 44.1356 185.236 44.1987C184.419 44.6751 183.602 45.1516 182.785 45.628C183.6 46.0074 184.414 46.3868 185.228 46.7663C184.12 47.1894 183.012 47.6125 181.903 48.0356C184.483 50.3029 185.107 54.3382 184.13 57.7213C183.205 60.9243 181.085 63.6207 178.718 65.929C178.256 64.2066 178.764 62.3392 179.103 60.5559C179.46 58.6716 179.517 56.4684 178.198 55.1381C177.308 54.2407 176.002 53.9696 174.771 53.7519C168.562 52.6537 162.295 51.9096 156.002 51.5232C155.159 51.4068 154.301 51.4944 153.5 51.7787C151.968 52.4593 151.353 54.3284 150.909 55.9857C150.696 53.0766 150.866 50.1523 151.414 47.2874C151.834 45.0943 152.496 42.8998 153.769 41.0829Z" fill="#2F2E41"/>
<path d="M173.081 142.633H155.518C154.248 142.633 153.218 141.603 153.218 140.333C153.218 139.063 154.248 138.033 155.518 138.033L173.081 138.033C174.351 138.033 175.381 139.063 175.381 140.333C175.381 141.603 174.351 142.633 173.081 142.633Z" fill="#E77E5C"/>
<path d="M143.342 30.2899H67.143C66.2151 30.2899 65.4629 29.5377 65.4629 28.6098C65.4629 27.6819 66.2151 26.9297 67.143 26.9297H143.342C144.27 26.9297 145.022 27.6819 145.022 28.6098C145.022 29.5377 144.27 30.2899 143.342 30.2899Z" fill="#E77E5C"/>
<path d="M128.7 40.3992H67.144C66.2161 40.3992 65.4639 39.647 65.4639 38.7192C65.4639 37.7913 66.2161 37.0391 67.144 37.0391H128.7C129.628 37.0391 130.38 37.7913 130.38 38.7192C130.38 39.647 129.628 40.3992 128.7 40.3992Z" fill="#CACACA"/>
<path d="M101.855 50.4725H67.144C66.2161 50.4725 65.4639 49.7203 65.4639 48.7924C65.4639 47.8645 66.2161 47.1123 67.144 47.1123H101.855C102.783 47.1123 103.535 47.8645 103.535 48.7924C103.535 49.7203 102.783 50.4725 101.855 50.4725Z" fill="#CACACA"/>
<path d="M121.029 60.5438H67.143C66.2151 60.5438 65.4629 59.7916 65.4629 58.8637C65.4629 57.9358 66.2151 57.1836 67.143 57.1836H121.029C121.957 57.1836 122.709 57.9358 122.709 58.8637C122.709 59.7916 121.957 60.5438 121.029 60.5438Z" fill="#CACACA"/>
<path d="M272.895 224.917L268.566 224.916L266.506 208.216L272.896 208.216L272.895 224.917Z" fill="#9F616A"/>
<path d="M274.599 230.909L258.068 230.908V230.699C258.068 227.146 260.949 224.266 264.502 224.265L267.522 221.975L273.156 224.266L274.599 224.266L274.599 230.909Z" fill="#2F2E41"/>
<path d="M270.373 146.428L268.463 123.146L266.963 114.407L275.362 112.552L278.149 124.516L275.721 147.074C276.723 148.302 276.878 150.016 276.114 151.404C275.35 152.792 273.819 153.577 272.245 153.387C270.672 153.197 269.372 152.07 268.96 150.54C268.548 149.009 269.107 147.382 270.373 146.428Z" fill="#9F616A"/>
<path d="M249.896 224.917L245.567 224.916L243.507 208.216L249.897 208.216L249.896 224.917Z" fill="#9F616A"/>
<path d="M242.967 151.707L241.048 155.027C241.048 155.027 238.939 155.603 239.628 162.478C240.317 169.353 240.347 210.085 243.684 215.097L244.287 219.401L250.588 220.004L250.746 216.185L258.259 163.127C258.259 163.127 262.683 215.213 266.343 216.487L267.665 220.827L273.439 220.829L273.098 215.716L273.47 151.169L242.967 151.707Z" fill="#2F2E41"/>
<path d="M240.857 154.773L240.725 154.739C244.686 139.921 243.543 120.733 240.746 100.129V100.044L250.859 90.7812H259.64L268.345 96.3991C273.973 99.2129 275.252 105.172 275.265 105.232L275.273 105.274L271.825 117.31L274.423 152.119L274.426 152.16L274.411 152.197C273.57 154.329 271.317 154.025 268.709 153.674C266.105 153.323 256.508 156.533 253.566 156.533C247.816 156.533 241.268 154.879 240.857 154.773Z" fill="#E4E4E4"/>
<path d="M266.522 101.09L270.295 99.4492L275.265 105.543L279.293 125.07L265.494 122.979L266.522 101.09Z" fill="#E4E4E4"/>
<path d="M208.499 137.099L225.744 121.34L231.738 114.806L238.345 120.313L230.588 129.839L211.26 141.724C210.903 143.268 209.643 144.439 208.077 144.685C206.511 144.93 204.953 144.199 204.141 142.838C203.328 141.477 203.424 139.76 204.382 138.497C205.34 137.235 206.97 136.681 208.499 137.099Z" fill="#9F616A"/>
<path d="M225.369 121.512L230.145 115.309C230.185 115.22 234.147 106.365 237.582 102.517C241.106 98.5702 243.88 100.589 243.908 100.61L243.977 100.662L244.168 115.238L230.943 131.041L225.369 121.512Z" fill="#E4E4E4"/>
<circle cx="267.898" cy="80.9734" r="8.04985" transform="rotate(-80.7827 267.898 80.9734)" fill="#9F616A"/>
<path d="M247.019 79.5724C247.019 79.5724 246.955 76.7424 246.597 75.4902C246.239 74.238 245.523 73.1647 245.881 73.1647C246.239 73.1647 246.418 72.2702 246.418 72.2702C246.418 72.2702 246.776 72.0914 246.954 72.2702C247.133 72.4491 247.312 71.018 247.312 71.018C247.312 71.018 247.491 70.4814 247.67 70.8392C247.849 71.197 247.849 71.018 248.028 70.4814C248.207 69.9448 249.101 69.587 249.101 69.587C249.101 69.587 252.5 69.7659 253.037 69.0503C253.573 68.3348 259.655 68.8715 260.908 69.7659C262.16 70.6603 267.705 73.8802 266.811 76.5636C265.916 79.2468 263.342 85.4251 262.697 86.0445C261.676 87.024 260.97 87.3772 256.142 88.3378C255.197 88.5258 250.375 85.4417 250.375 84.905C250.375 84.3683 250.956 82.6665 250.022 82.4328C248.609 82.0797 248.45 83.8656 248.092 83.329C247.735 82.7923 247.019 79.5724 247.019 79.5724Z" fill="#2F2E41"/>
<path d="M251.6 230.909L235.07 230.908V230.699C235.07 227.146 237.95 224.266 241.503 224.265L244.524 221.975L250.157 224.266L251.6 224.266L251.6 230.909Z" fill="#2F2E41"/>
<path d="M337.527 231.224H66.8553C66.5804 231.224 66.3574 231.001 66.3574 230.726C66.3574 230.451 66.5804 230.229 66.8553 230.229H337.527C337.802 230.229 338.025 230.451 338.025 230.726C338.025 231.001 337.802 231.224 337.527 231.224Z" fill="#CACACA"/>
<defs>
<filter id="filter0_d_317_148" x="0.770508" y="63.0186" width="403.487" height="306.467" filterUnits="userSpaceOnUse" color-interpolation-filters="sRGB">
<feFlood flood-opacity="0" result="BackgroundImageFix"/>
<feColorMatrix in="SourceAlpha" type="matrix" values="0 0 0 0 0 0 0 0 0 0 0 0 0 0 0 0 0 0 127 0" result="hardAlpha"/>
<feOffset dy="13"/>
<feGaussianBlur stdDeviation="7.5"/>
<feComposite in2="hardAlpha" operator="out"/>
<feColorMatrix type="matrix" values="0 0 0 0 0 0 0 0 0 0 0 0 0 0 0 0 0 0 0.0313726 0"/>
<feBlend mode="normal" in2="BackgroundImageFix" result="effect1_dropShadow_317_148"/>
<feBlend mode="normal" in="SourceGraphic" in2="effect1_dropShadow_317_148" result="shape"/>
</filter>
</defs>
</svg>
