<svg width="637" height="494" viewBox="0 0 637 494" fill="none" xmlns="http://www.w3.org/2000/svg">
<path d="M491.371 375.971C359.048 361.406 239.153 490.982 67.6024 375.971C-103.948 260.96 106.127 144.393 97.7516 71.5696C89.996 4.13523 285.349 -21.6443 508.12 22.0497C730.891 65.7438 623.693 390.536 491.371 375.971Z" fill="white"/>
<path d="M372.702 124.672C389.546 112.229 413.259 107.459 431.814 117.166C410.926 126.236 393.918 142.401 383.801 162.803C379.928 170.686 376.441 179.856 368.45 183.499C363.478 185.766 357.609 185.328 352.46 183.498C347.311 181.667 342.731 178.558 338.215 175.481L336.86 175.318C344.898 155.981 355.858 137.115 372.702 124.672Z" fill="#84AA44"/>
<path d="M431.664 117.58C414.34 118.123 397.627 124.11 383.899 134.693C380.903 136.918 378.277 139.602 376.117 142.646C374.109 145.678 372.949 149.193 372.759 152.826C372.514 156.209 372.654 159.698 371.591 162.963C370.439 166.326 367.907 169.039 364.63 170.418C360.638 172.223 356.235 172.485 351.921 172.592C347.13 172.711 342.153 172.758 337.796 175.014C337.269 175.287 336.875 174.452 337.402 174.179C344.982 170.255 353.839 172.815 361.806 170.479C365.523 169.39 368.934 167.173 370.427 163.464C371.732 160.221 371.59 156.623 371.809 153.195C371.942 149.649 372.942 146.189 374.721 143.119C376.719 139.975 379.238 137.195 382.169 134.896C388.685 129.616 395.99 125.393 403.818 122.382C412.733 118.896 422.178 116.961 431.745 116.66C432.337 116.642 432.252 117.562 431.664 117.58Z" fill="white"/>
<path d="M388.119 131.024C385.097 125.769 386.328 119.1 391.025 115.269C391.487 114.895 392.089 115.595 391.627 115.969C387.245 119.529 386.11 125.752 388.953 130.63C389.252 131.143 388.415 131.535 388.119 131.024Z" fill="white"/>
<path d="M372.659 151.095C378.436 152.71 384.611 152.088 389.95 149.352C390.479 149.081 390.872 149.916 390.344 150.187C384.782 153.023 378.356 153.657 372.347 151.963C371.774 151.802 372.089 150.934 372.659 151.095Z" fill="white"/>
<path d="M412.689 120.119C413.422 122.359 415.232 124.079 417.506 124.698C418.08 124.853 417.765 125.72 417.194 125.567C414.686 124.872 412.687 122.979 411.855 120.513C411.755 120.282 411.851 120.014 412.075 119.899C412.305 119.792 412.58 119.89 412.689 120.119Z" fill="white"/>
<path d="M446.525 186.524C446.164 186.438 445.802 186.352 445.435 186.271C440.57 185.136 435.621 184.398 430.637 184.065C430.252 184.033 429.862 184.007 429.476 183.986C417.46 183.311 405.422 184.873 393.976 188.593C389.422 190.077 384.988 191.906 380.712 194.063C374.807 197.042 368.641 200.742 362.284 201.572C361.622 201.666 360.954 201.719 360.285 201.73L336.766 176.982C336.741 176.899 336.71 176.821 336.684 176.738L335.7 175.793C335.913 175.666 336.136 175.539 336.349 175.413C336.472 175.339 336.6 175.27 336.723 175.196C336.807 175.149 336.891 175.101 336.964 175.054C336.992 175.038 337.02 175.022 337.042 175.011C337.115 174.964 337.188 174.927 337.255 174.885C338.502 174.173 339.756 173.468 341.017 172.771C341.022 172.766 341.022 172.766 341.033 172.766C350.656 167.479 360.804 162.949 371.317 160.103C371.634 160.018 371.955 159.927 372.282 159.853C377.028 158.596 381.869 157.73 386.756 157.262C389.433 157.015 392.121 156.903 394.809 156.927C401.755 157.003 408.645 158.171 415.228 160.389C428.35 164.811 439.912 173.38 446.064 185.587C446.221 185.899 446.373 186.207 446.525 186.524Z" fill="#84AA44"/>
<path d="M446.158 186.767C431.998 176.769 415.049 171.488 397.717 171.672C393.985 171.646 390.272 172.207 386.715 173.337C383.286 174.549 380.244 176.658 377.905 179.444C375.672 181.997 373.683 184.868 370.869 186.834C367.924 188.826 364.269 189.468 360.823 188.596C356.548 187.633 352.875 185.192 349.366 182.68C345.47 179.89 341.467 176.931 336.631 176.109C336.045 176.01 336.233 175.106 336.818 175.206C345.233 176.636 350.764 184.013 358.53 186.944C362.155 188.312 366.213 188.596 369.638 186.534C372.632 184.73 374.685 181.772 376.924 179.166C379.166 176.415 382.047 174.255 385.316 172.875C388.804 171.568 392.489 170.864 396.213 170.793C404.595 170.5 412.97 171.527 421.033 173.836C430.249 176.42 438.956 180.561 446.776 186.081C447.26 186.423 446.638 187.106 446.158 186.767Z" fill="white"/>
<path d="M403.294 171.285C404.045 165.271 409.043 160.686 415.1 160.455C415.694 160.435 415.754 161.356 415.159 161.377C409.517 161.581 404.864 165.866 404.197 171.473C404.126 172.063 403.223 171.871 403.294 171.285Z" fill="white"/>
<path d="M378.868 177.999C382.509 182.767 387.813 185.988 393.723 187.019C394.309 187.121 394.12 188.024 393.535 187.922C387.387 186.838 381.874 183.475 378.096 178.505C377.736 178.031 378.51 177.528 378.868 177.999Z" fill="white"/>
<path d="M429.478 177.371C428.715 179.601 429.125 182.064 430.567 183.927C430.933 184.396 430.159 184.899 429.795 184.433C428.212 182.368 427.755 179.653 428.575 177.183C428.634 176.939 428.873 176.782 429.12 176.826C429.369 176.879 429.529 177.122 429.478 177.371Z" fill="white"/>
<path d="M368.257 143.182H366.435V93.2521C366.435 77.2918 353.496 64.3535 337.536 64.3535H231.751C215.791 64.3535 202.852 77.2919 202.852 93.2521V367.176C202.852 383.136 215.791 396.074 231.751 396.074L337.536 396.074C353.496 396.074 366.435 383.136 366.435 367.176V178.724H368.257L368.257 143.182Z" fill="#3F3D56"/>
<path d="M338.703 71.8711H324.895C326.184 75.0326 325.815 78.6286 323.911 81.4625C322.006 84.2964 318.816 85.9963 315.402 85.9966H254.799C251.385 85.9966 248.195 84.2969 246.29 81.4632C244.385 78.6286 244.016 75.0326 245.306 71.8711H232.408C220.489 71.8711 210.827 81.5333 210.827 93.4522V366.974C210.827 378.893 220.489 388.555 232.408 388.555H338.703C350.622 388.555 360.284 378.893 360.284 366.974V93.4517C360.284 81.5335 350.622 71.8714 338.703 71.8711Z" fill="white"/>
<path d="M287.598 300.69C271.789 300.705 256.624 294.431 245.446 283.253C234.267 272.075 227.994 256.909 228.009 241.101C227.986 218.688 240.559 198.164 260.536 188.003C274.882 180.704 291.568 179.507 306.81 184.682C334.404 194.085 351.146 222.07 346.383 250.831C341.62 279.592 316.75 300.685 287.598 300.69ZM287.598 183.849C278.558 183.822 269.643 185.96 261.598 190.085C242.43 199.851 230.354 219.539 230.337 241.052C230.319 262.565 242.363 282.272 261.515 292.07C280.668 301.868 303.696 300.102 321.131 287.499C324.223 285.268 327.082 282.731 329.665 279.927C345.104 263.223 349.186 238.962 340.062 218.126C330.939 197.289 310.343 183.833 287.598 183.849Z" fill="#F0F0F0"/>
<path d="M158.476 188.217C161.788 188.632 164.745 190.493 166.552 193.298C168.36 196.103 168.832 199.565 167.842 202.751L187.64 219.243L180.553 233.719L152.921 210.037C147.56 207.973 144.59 202.226 146.007 196.659C147.425 191.093 152.781 187.466 158.476 188.217Z" fill="#FFB6B6"/>
<path d="M343.387 256.991C342.99 252.723 341.348 245.05 339.955 242.213C335.673 231.005 308.007 221.794 304.291 220.607L303.349 210.13L264.908 205.994L260.032 219.392L246.245 224.564C244.349 225.271 242.869 226.788 242.21 228.7L229.84 232.275L217.634 235.804L175.229 205.924L173.227 207.232L159.845 215.964L157.78 217.312L212.657 266.822L233.041 262.039L248.371 258.432L249.68 263.745L246.291 282.408C266.569 302.693 298.575 305.251 321.818 288.445L330.526 280.718C336.596 274.155 341.075 266.285 343.62 257.716L343.387 256.991Z" fill="#E4E4E4"/>
<circle cx="290.313" cy="209.109" r="27.6777" transform="rotate(-18.3192 290.313 209.109)" fill="#FFB6B6"/>
<path d="M265.646 139.598C268.336 135.755 272.374 133.065 276.957 132.063C281.488 131.131 286.204 131.996 290.11 134.475C294.356 132.765 298.935 131.63 303.434 132.207C307.932 132.784 312.342 135.297 314.423 139.436C314.861 140.509 315.392 141.541 316.011 142.52C317.845 144.967 321.253 145.284 324.263 145.402C322.741 146.289 321.219 147.177 319.697 148.064C321.214 148.771 322.731 149.478 324.248 150.185C322.183 150.973 320.119 151.761 318.054 152.549C322.859 156.773 324.022 164.289 322.202 170.591C320.48 176.558 316.531 181.581 312.121 185.881C311.26 182.672 312.207 179.194 312.837 175.872C313.503 172.362 313.609 168.257 311.152 165.779C309.494 164.108 307.062 163.603 304.769 163.197C293.202 161.152 281.529 159.766 269.805 159.046C268.236 158.829 266.637 158.992 265.145 159.522C262.291 160.789 261.145 164.271 260.318 167.358C259.922 161.939 260.239 156.492 261.259 151.155C262.041 147.07 263.274 142.982 265.646 139.598Z" fill="#2F2E41"/>
<path d="M301.618 328.766H268.902C266.536 328.766 264.618 326.848 264.618 324.481C264.618 322.115 266.536 320.197 268.902 320.197L301.618 320.197C303.984 320.197 305.902 322.115 305.902 324.481C305.902 326.848 303.984 328.766 301.618 328.766Z" fill="#E77E5C"/>
<path d="M194.266 99.5038H104.279C102.55 99.5038 101.149 98.1025 101.149 96.374C101.149 94.6454 102.55 93.2441 104.279 93.2441H194.266C195.995 93.2441 197.396 94.6454 197.396 96.374C197.396 98.1025 195.995 99.5038 194.266 99.5038Z" fill="#E77E5C"/>
<path d="M246.221 119.494H104.279C102.55 119.494 101.149 118.092 101.149 116.364C101.149 114.636 102.55 113.234 104.279 113.234H246.221C247.95 113.234 249.351 114.636 249.351 116.364C249.351 118.092 247.95 119.494 246.221 119.494Z" fill="#E77E5C"/>
<path d="M218.945 138.326H104.279C102.55 138.326 101.149 136.925 101.149 135.196C101.149 133.468 102.55 132.066 104.279 132.066H218.945C220.673 132.066 222.074 133.468 222.074 135.196C222.074 136.925 220.673 138.326 218.945 138.326Z" fill="#CACACA"/>
<path d="M168.938 157.089H104.279C102.55 157.089 101.149 155.688 101.149 153.96C101.149 152.231 102.55 150.83 104.279 150.83H168.938C170.666 150.83 172.068 152.231 172.068 153.96C172.068 155.688 170.666 157.089 168.938 157.089Z" fill="#CACACA"/>
<path d="M204.657 175.851H104.279C102.55 175.851 101.149 174.45 101.149 172.721C101.149 170.993 102.55 169.592 104.279 169.592L204.657 169.592C206.386 169.592 207.787 170.993 207.787 172.721C207.787 174.45 206.386 175.851 204.657 175.851Z" fill="#CACACA"/>
<path d="M487.551 482.044L479.486 482.043L475.649 450.934L487.553 450.934L487.551 482.044Z" fill="#9F616A"/>
<path d="M490.725 493.205L459.932 493.204V492.815C459.932 486.196 465.298 480.83 471.917 480.83L471.918 480.83L477.543 476.562L488.037 480.83L490.725 480.83L490.725 493.205Z" fill="#2F2E41"/>
<path d="M482.853 335.835L479.295 292.465L476.501 276.186L492.146 272.73L497.338 295.017L492.815 337.039C494.681 339.326 494.971 342.518 493.547 345.104C492.123 347.691 489.271 349.152 486.34 348.798C483.409 348.444 480.987 346.345 480.22 343.494C479.453 340.643 480.495 337.612 482.853 335.835Z" fill="#9F616A"/>
<path d="M444.71 482.044L436.644 482.043L432.807 450.934L444.711 450.934L444.71 482.044Z" fill="#9F616A"/>
<path d="M431.803 345.668L428.228 351.853C428.228 351.853 424.299 352.926 425.583 365.732C426.867 378.539 426.922 454.415 433.137 463.751L434.262 471.769L445.998 472.891L446.294 465.777L460.288 366.941C460.288 366.941 468.53 463.966 475.348 466.34L477.81 474.424L488.566 474.429L487.931 464.903L488.624 344.666L431.803 345.668Z" fill="#2F2E41"/>
<path d="M427.871 351.382L427.624 351.318C435.004 323.715 432.875 287.972 427.664 249.591L427.664 249.432L446.502 232.178H462.859L479.076 242.643C489.559 247.884 491.941 258.984 491.964 259.096L491.98 259.175L485.557 281.596L490.396 346.438L490.402 346.513L490.374 346.583C488.808 350.554 484.611 349.988 479.752 349.333C474.901 348.679 457.026 354.66 451.544 354.66C440.833 354.66 428.636 351.578 427.871 351.382Z" fill="#E4E4E4"/>
<path d="M475.679 251.381L482.707 248.324L491.965 259.676L499.469 296.05L473.764 292.156L475.679 251.381Z" fill="#E4E4E4"/>
<path d="M367.596 318.457L399.72 289.102L410.885 276.93L423.192 287.189L408.743 304.934L372.74 327.073C372.073 329.949 369.726 332.131 366.809 332.588C363.893 333.044 360.991 331.683 359.477 329.148C357.964 326.614 358.142 323.414 359.927 321.062C361.712 318.711 364.748 317.68 367.596 318.457Z" fill="#9F616A"/>
<path d="M399.02 289.42L407.918 277.866C407.991 277.7 415.373 261.204 421.772 254.037C428.335 246.685 433.503 250.445 433.554 250.485L433.683 250.582L434.04 277.733L409.404 307.171L399.02 289.42Z" fill="#E4E4E4"/>
<ellipse cx="478.243" cy="213.907" rx="14.9952" ry="14.9952" transform="rotate(-80.7827 478.243 213.907)" fill="#9F616A"/>
<path d="M439.349 211.296C439.349 211.296 439.229 206.025 438.562 203.692C437.896 201.359 436.563 199.36 437.229 199.36C437.896 199.36 438.229 197.694 438.229 197.694C438.229 197.694 438.895 197.361 439.229 197.694C439.562 198.027 439.895 195.361 439.895 195.361C439.895 195.361 440.228 194.362 440.562 195.028C440.895 195.695 440.895 195.361 441.228 194.362C441.561 193.362 443.227 192.695 443.227 192.695C443.227 192.695 449.559 193.029 450.558 191.696C451.558 190.363 462.888 191.363 465.221 193.029C467.553 194.695 477.883 200.693 476.217 205.691C474.551 210.69 469.755 222.198 468.553 223.352C466.652 225.177 465.336 225.835 456.343 227.624C454.583 227.974 445.6 222.229 445.6 221.23C445.6 220.23 446.683 217.06 444.942 216.625C442.311 215.967 442.015 219.294 441.348 218.294C440.682 217.294 439.349 211.296 439.349 211.296Z" fill="#2F2E41"/>
<path d="M447.883 493.205L417.091 493.204V492.815C417.091 486.196 422.456 480.83 429.075 480.83L429.076 480.83L434.701 476.562L445.195 480.83L447.883 480.83L447.883 493.205Z" fill="#2F2E41"/>
<path d="M607.947 493.792H103.743C103.23 493.792 102.815 493.377 102.815 492.865C102.815 492.353 103.23 491.938 103.743 491.938H607.947C608.459 491.938 608.875 492.353 608.875 492.865C608.875 493.377 608.459 493.792 607.947 493.792Z" fill="#CACACA"/>
<path d="M326.983 249.615C326.977 249.498 326.963 249.383 326.952 249.267C326.938 249.149 326.916 249.021 326.897 248.9L326.889 248.854L326.882 248.819L326.867 248.75L326.838 248.613L326.83 248.579L326.82 248.531L326.815 248.512L326.794 248.433L326.752 248.277C326.694 248.069 326.629 247.862 326.551 247.657C326.397 247.247 326.203 246.845 325.959 246.468C325.714 246.092 325.424 245.74 325.091 245.442C324.758 245.144 324.391 244.893 324.009 244.71C323.629 244.522 323.24 244.397 322.863 244.318C322.486 244.237 322.12 244.206 321.774 244.202C321.428 244.197 321.101 244.224 320.794 244.267C320.179 244.354 319.646 244.508 319.191 244.676C318.736 244.843 318.359 245.023 318.058 245.186C317.907 245.267 317.775 245.344 317.662 245.414C317.549 245.483 317.455 245.546 317.38 245.598C317.23 245.702 317.154 245.764 317.154 245.764L317.43 245.726C317.519 245.715 317.628 245.702 317.757 245.686C317.886 245.672 318.033 245.656 318.197 245.64C318.525 245.611 318.921 245.581 319.366 245.572C319.811 245.564 320.307 245.575 320.822 245.639C321.336 245.701 321.87 245.819 322.356 246.028C322.845 246.235 323.271 246.537 323.606 246.933C323.94 247.33 324.196 247.829 324.372 248.412C324.415 248.557 324.456 248.706 324.49 248.859L324.515 248.975L324.527 249.026L324.528 249.034L324.534 249.069L324.559 249.207L324.572 249.276L324.578 249.31L324.58 249.334C324.586 249.398 324.595 249.455 324.601 249.524C324.605 249.595 324.613 249.667 324.616 249.738C324.616 249.809 324.622 249.88 324.619 249.95L324.616 250.055C324.616 250.09 324.614 250.125 324.61 250.159C324.571 250.714 324.409 251.245 324.121 251.75C323.835 252.255 323.44 252.733 322.991 253.165C322.542 253.597 322.046 253.986 321.55 254.336C321.053 254.686 320.554 254.998 320.082 255.278C319.61 255.558 319.163 255.803 318.763 256.021C318.362 256.236 318.005 256.42 317.709 256.572L316.768 257.05C316.768 257.05 316.866 257.058 317.048 257.059C317.139 257.06 317.252 257.06 317.383 257.055C317.516 257.053 317.667 257.045 317.836 257.033C318.176 257.01 318.586 256.966 319.055 256.891C319.523 256.816 320.05 256.707 320.618 256.548C321.185 256.388 321.796 256.18 322.427 255.897C323.057 255.614 323.71 255.256 324.345 254.784C324.977 254.311 325.598 253.717 326.09 252.958C326.335 252.58 326.547 252.162 326.698 251.714C326.853 251.267 326.946 250.794 326.98 250.321C326.985 250.262 326.988 250.202 326.988 250.143L326.992 249.966C326.994 249.848 326.986 249.732 326.983 249.615Z" fill="#E77E5C"/>
<path d="M308.188 252.08C308.237 252.4 308.314 252.717 308.419 253.021C308.462 253.149 308.508 253.274 308.56 253.397C308.691 253.704 308.851 253.995 309.026 254.265C309.518 255.024 310.14 255.618 310.771 256.091C311.407 256.563 312.06 256.921 312.69 257.204C313.322 257.487 313.932 257.696 314.5 257.855C314.706 257.913 316.435 257.371 316.355 257.328C315.954 257.11 315.507 256.824 315.035 256.544C314.835 256.425 313.854 255.803 313.568 255.602C313.071 255.252 312.575 254.871 312.126 254.439C311.678 254.007 310.77 252.764 310.692 252.08" fill="#E77E5C"/>
<path d="M316.063 247.727C316.193 247.821 316.308 247.921 316.403 248.024C317.037 248.714 317.46 249.349 317.513 250.256H319.38C319.28 248.955 318.764 247.828 317.819 246.875C317.633 246.689 317.446 246.522 317.256 246.373C317.23 246.39 317.205 246.407 317.18 246.424C316.791 246.718 316.422 247.174 316.063 247.727Z" fill="#E77E5C"/>
<path d="M317.74 258.133L317.226 257.867C317.136 257.82 317.042 257.77 316.945 257.719C316.469 257.981 315.973 258.166 315.456 258.275C315.797 258.354 316.12 258.416 316.418 258.464C316.887 258.539 317.297 258.583 317.636 258.606C317.806 258.618 317.957 258.625 318.089 258.628C318.221 258.633 318.334 258.633 318.425 258.632C318.607 258.63 318.704 258.623 318.704 258.623L317.763 258.145L317.74 258.133Z" fill="#E77E5C"/>
<path d="M317.256 246.372L317.26 246.369L317.257 246.367C317.232 246.385 317.206 246.404 317.18 246.423C317.205 246.406 317.23 246.389 317.256 246.372Z" fill="#525252"/>
<path d="M313.95 247.159C313.95 247.159 315.041 247.111 315.969 247.677C316.142 247.221 316.46 246.483 316.838 246.083C315.985 245.536 315.023 245.262 313.945 245.262C313.459 245.262 312.996 245.318 312.557 245.43C312.557 245.43 312.045 245.518 311.089 246.007C310.712 246.2 310.341 246.441 310.008 246.739C309.675 247.037 309.386 247.389 309.141 247.765C308.896 248.142 308.702 248.544 308.549 248.954C308.471 249.159 308.406 249.367 308.348 249.575L308.306 249.73L308.285 249.809L308.28 249.828L308.27 249.876L308.262 249.91L308.233 250.048L308.218 250.116L308.191 250.255L307.354 250.255C307.354 250.255 307.043 250.248 306.942 250.278C306.942 250.278 306.787 250.3 306.631 250.447C306.631 250.447 306.509 250.552 306.482 250.637C306.482 250.637 306.436 250.727 306.44 250.905V252.08H318.467C318.728 252.08 318.936 252.087 319.113 251.95C319.319 251.79 319.38 251.69 319.38 251.43V250.255H310.405C310.464 249.342 310.834 248.656 311.515 248.017C311.515 248.017 312.307 247.214 313.95 247.159Z" fill="#84AA43"/>
</svg>
