<svg width="187" height="49" viewBox="0 0 187 49" fill="none" xmlns="http://www.w3.org/2000/svg">
<path d="M186.969 18.3347C186.95 17.9406 186.902 17.5529 186.865 17.1629C186.818 16.7647 186.743 16.3335 186.678 15.9228L186.652 15.7671L186.627 15.6507L186.578 15.4187L186.479 14.9557L186.454 14.8403L186.418 14.6789L186.401 14.6134L186.331 14.3495L186.19 13.8228C185.993 13.1219 185.773 12.4214 185.511 11.7306C184.993 10.3472 184.338 8.98973 183.514 7.71769C182.686 6.45024 181.709 5.26286 180.586 4.25511C179.462 3.25016 178.223 2.40458 176.935 1.78679C175.654 1.15288 174.34 0.730573 173.068 0.465375C171.796 0.1909 170.562 0.0873843 169.395 0.0721865C168.226 0.0559512 167.122 0.146527 166.086 0.292523C164.014 0.587323 162.214 1.10435 160.68 1.67082C159.145 2.23637 157.872 2.84257 156.856 3.39384C156.346 3.66734 155.901 3.92564 155.521 4.16313C155.139 4.39555 154.823 4.60808 154.569 4.78319C154.062 5.13298 153.808 5.34318 153.808 5.34318L154.736 5.21476C155.036 5.17827 155.407 5.13249 155.842 5.0789C156.276 5.03227 156.772 4.97728 157.325 4.92503C158.433 4.82573 159.767 4.72404 161.27 4.69542C162.772 4.6696 164.444 4.70512 166.181 4.92003C167.915 5.13115 169.717 5.5294 171.358 6.23497C173.007 6.93406 174.444 7.95152 175.575 9.28727C176.703 10.6282 177.565 12.3119 178.158 14.2765C178.303 14.7673 178.442 15.2699 178.559 15.787L178.644 16.1778L178.681 16.3493L178.686 16.3766L178.706 16.4935L178.791 16.9592L178.833 17.1921L178.855 17.308L178.863 17.3875C178.882 17.6028 178.913 17.7964 178.933 18.0279C178.945 18.2696 178.973 18.5122 178.982 18.7515C178.982 18.9899 179.003 19.2302 178.993 19.4668L178.982 19.8207C178.981 19.9394 178.976 20.0568 178.961 20.1732C178.831 22.0426 178.286 23.8345 177.312 25.5404C176.349 27.2449 175.014 28.857 173.501 30.3129C171.985 31.7707 170.313 33.0843 168.637 34.2649C166.96 35.4458 165.278 36.4989 163.686 37.4433C162.094 38.3882 160.586 39.2148 159.234 39.9486C157.88 40.6763 156.678 41.2973 155.68 41.8106L152.505 43.4219C152.505 43.4219 152.834 43.4477 153.449 43.4523C153.757 43.4555 154.136 43.4546 154.58 43.4399C155.027 43.4306 155.537 43.4038 156.109 43.3641C157.253 43.2882 158.637 43.1381 160.219 42.8863C161.8 42.6317 163.576 42.2649 165.492 41.7279C167.408 41.1896 169.467 40.4859 171.596 39.5323C173.724 38.5768 175.926 37.3694 178.069 35.7758C180.202 34.1808 182.296 32.175 183.956 29.6148C184.783 28.339 185.499 26.9294 186.008 25.4175C186.529 23.9117 186.845 22.3135 186.958 20.7175C186.977 20.5179 186.985 20.3183 186.987 20.1192L186.999 19.5218C187.007 19.1235 186.98 18.7303 186.969 18.3347Z" fill="#E77E5C"/>
<path d="M123.557 26.6543C123.722 27.735 123.981 28.8032 124.337 29.8291C124.482 30.2601 124.635 30.6819 124.812 31.0959C125.254 32.1333 125.792 33.1141 126.383 34.0259C128.044 36.5861 130.14 38.5923 132.272 40.1873C134.415 41.7809 136.619 42.9878 138.747 43.9432C140.876 44.8975 142.936 45.6007 144.852 46.139C145.547 46.334 151.381 44.5056 151.11 44.3601C149.759 43.6263 148.251 42.6606 146.658 41.7153C145.981 41.3137 142.671 39.2161 141.707 38.5372C140.032 37.3567 138.359 36.0704 136.844 34.6132C135.331 33.1572 132.267 28.9631 132.004 26.6543" fill="#E77E5C"/>
<path d="M150.126 11.9614C150.564 12.2789 150.952 12.6157 151.273 12.9651C153.411 15.2938 154.838 17.4349 155.017 20.496H161.316C160.979 16.1056 159.24 12.3025 156.049 9.08655C155.423 8.46057 154.791 7.89868 154.149 7.39453C154.063 7.45178 153.979 7.50916 153.895 7.56689C152.583 8.55981 151.335 10.098 150.126 11.9614Z" fill="#E77E5C"/>
<path d="M155.784 47.0803L154.051 46.1825C153.745 46.0222 153.429 45.8558 153.101 45.6816C151.497 46.5656 149.823 47.1908 148.077 47.5575C149.229 47.826 150.317 48.0344 151.324 48.1965C152.906 48.4489 154.29 48.5986 155.434 48.6744C156.006 48.7145 156.517 48.7408 156.962 48.7501C157.407 48.7649 157.787 48.7659 158.094 48.7631C158.709 48.7579 159.038 48.7325 159.038 48.7325L155.863 47.1213L155.784 47.0803Z" fill="#E77E5C"/>
<path d="M154.148 7.39514L154.163 7.38544L154.154 7.37891C154.067 7.43945 153.98 7.50232 153.895 7.5675C153.978 7.5097 154.062 7.45239 154.148 7.39514Z" fill="#525252"/>
<path d="M142.995 10.0521C142.995 10.0521 146.674 9.88989 149.806 11.7982C150.389 10.2609 151.463 7.77002 152.737 6.42224C149.862 4.57587 146.613 3.65039 142.978 3.65039C141.336 3.65039 139.776 3.83978 138.295 4.21777C138.295 4.21777 136.567 4.51483 133.342 6.16577C132.071 6.81635 130.818 7.62866 129.694 8.63403C128.57 9.64178 127.594 10.8293 126.767 12.0962C125.943 13.3687 125.289 14.7262 124.771 16.1096C124.508 16.8004 124.289 17.5008 124.092 18.2017L123.951 18.728L123.881 18.9918L123.864 19.0579L123.829 19.2192L123.803 19.3347L123.704 19.7977L123.655 20.0297L123.564 20.4968L120.738 20.4972C120.738 20.4972 119.691 20.4741 119.349 20.5762C119.349 20.5762 118.826 20.6492 118.301 21.145C118.301 21.145 117.888 21.5008 117.799 21.7859C117.799 21.7859 117.643 22.0895 117.657 22.6896V26.6541H158.234C159.114 26.6541 159.816 26.6804 160.414 26.2174C161.11 25.6768 161.315 25.3409 161.315 24.4611V20.4968H131.033C131.231 17.4186 132.48 15.1023 134.779 12.9459C134.779 12.9459 137.451 10.2379 142.995 10.0521Z" fill="#84AA43"/>
<path d="M0.85791 19.025C0.85791 18.625 0.891244 18.2 0.95791 17.75C1.04124 17.2833 1.15791 16.7917 1.30791 16.275C1.47458 15.7417 1.67458 15.1833 1.90791 14.6L3.70791 15.3C3.54124 15.7667 3.39124 16.2083 3.25791 16.625C3.14124 17.0417 3.04958 17.4333 2.98291 17.8C2.93291 18.1667 2.90791 18.5167 2.90791 18.85C2.90791 19.55 3.05791 20.1417 3.35791 20.625C3.67458 21.125 4.10791 21.5333 4.65791 21.85C5.20791 22.1667 5.83291 22.4 6.53291 22.55C7.24958 22.7 8.00791 22.775 8.80791 22.775C9.77458 22.775 10.6746 22.6917 11.5079 22.525C12.3579 22.3583 13.0996 22.1167 13.7329 21.8C14.3829 21.5 14.8912 21.15 15.2579 20.75C15.6246 20.3667 15.8079 19.95 15.8079 19.5C15.8079 19.2833 15.7246 19.0833 15.5579 18.9C15.3912 18.7167 15.1412 18.5417 14.8079 18.375C14.4746 18.2083 14.0746 18.05 13.6079 17.9C13.1412 17.7333 12.6079 17.5667 12.0079 17.4L12.4829 15.325C13.3496 15.6583 14.1162 15.9417 14.7829 16.175C15.4496 16.3917 16.0329 16.5667 16.5329 16.7C17.0329 16.8333 17.4662 16.9333 17.8329 17C18.1996 17.05 18.5079 17.075 18.7579 17.075C19.1079 17.075 19.3579 17.175 19.5079 17.375C19.6746 17.5583 19.7579 17.7833 19.7579 18.05C19.7579 18.3167 19.6412 18.5667 19.4079 18.8C19.1746 19.0167 18.8746 19.125 18.5079 19.125C18.4079 19.125 18.3079 19.125 18.2079 19.125C18.1079 19.125 17.9996 19.125 17.8829 19.125C17.7829 19.125 17.6829 19.125 17.5829 19.125C17.6162 19.275 17.6412 19.3917 17.6579 19.475C17.6746 19.575 17.6829 19.7 17.6829 19.85C17.6829 20.4667 17.4662 21.0667 17.0329 21.65C16.6162 22.2333 15.9996 22.7583 15.1829 23.225C14.3662 23.7083 13.3746 24.0917 12.2079 24.375C11.0579 24.6583 9.74124 24.8 8.25791 24.8C6.94124 24.8 5.71624 24.5833 4.58291 24.15C3.46624 23.7333 2.56624 23.1 1.88291 22.25C1.19958 21.4 0.85791 20.325 0.85791 19.025ZM10.0579 29.525C9.70791 29.525 9.40791 29.4 9.15791 29.15C8.92458 28.9167 8.80791 28.6333 8.80791 28.3C8.80791 27.9667 8.92458 27.675 9.15791 27.425C9.40791 27.175 9.70791 27.05 10.0579 27.05C10.3912 27.05 10.6746 27.175 10.9079 27.425C11.1579 27.675 11.2829 27.9667 11.2829 28.3C11.2829 28.6333 11.1579 28.9167 10.9079 29.15C10.6746 29.4 10.3912 29.525 10.0579 29.525ZM6.63291 29.525C6.28291 29.525 5.98291 29.4 5.73291 29.15C5.49958 28.9167 5.38291 28.6333 5.38291 28.3C5.38291 27.9667 5.49958 27.675 5.73291 27.425C5.98291 27.175 6.28291 27.05 6.63291 27.05C6.96624 27.05 7.24958 27.175 7.48291 27.425C7.73291 27.675 7.85791 27.9667 7.85791 28.3C7.85791 28.6333 7.73291 28.9167 7.48291 29.15C7.24958 29.4 6.96624 29.525 6.63291 29.525ZM18.5161 19.125L18.7661 17.075C19.7494 17.075 20.5161 17.0417 21.0661 16.975C21.6161 16.8917 22.0078 16.7 22.2411 16.4C22.4744 16.0833 22.5911 15.5917 22.5911 14.925C22.5911 14.5083 22.5244 14.0167 22.3911 13.45C22.2578 12.8667 22.0828 12.25 21.8661 11.6C21.6494 10.95 21.4161 10.3083 21.1661 9.675L23.1911 8.925C23.4078 9.45833 23.6078 10.0667 23.7911 10.75C23.9911 11.4333 24.1578 12.1083 24.2911 12.775C24.4244 13.4417 24.4911 14.025 24.4911 14.525C24.4911 15.3583 24.3744 16.0667 24.1411 16.65C23.9244 17.2333 23.5744 17.7083 23.0911 18.075C22.6078 18.4417 21.9828 18.7083 21.2161 18.875C20.4661 19.0417 19.5661 19.125 18.5161 19.125ZM23.9661 6.325C23.6161 6.325 23.3161 6.20833 23.0661 5.975C22.8328 5.725 22.7161 5.43333 22.7161 5.1C22.7161 4.76667 22.8328 4.475 23.0661 4.225C23.3161 3.975 23.6161 3.85 23.9661 3.85C24.2994 3.85 24.5828 3.975 24.8161 4.225C25.0661 4.475 25.1911 4.76667 25.1911 5.1C25.1911 5.43333 25.0661 5.725 24.8161 5.975C24.5828 6.20833 24.2994 6.325 23.9661 6.325ZM20.5411 6.325C20.1911 6.325 19.8911 6.20833 19.6411 5.975C19.4078 5.725 19.2911 5.43333 19.2911 5.1C19.2911 4.76667 19.4078 4.475 19.6411 4.225C19.8911 3.975 20.1911 3.85 20.5411 3.85C20.8744 3.85 21.1578 3.975 21.3911 4.225C21.6411 4.475 21.7661 4.76667 21.7661 5.1C21.7661 5.43333 21.6411 5.725 21.3911 5.975C21.1578 6.20833 20.8744 6.325 20.5411 6.325ZM28.2868 19L27.7868 1.15H29.8118L30.3118 19H28.2868ZM31.4091 24.75L30.6841 22.85C32.3674 22.3167 33.6591 21.675 34.5591 20.925C35.4757 20.1917 36.1007 19.425 36.4341 18.625C36.7841 17.825 36.9591 17.0583 36.9591 16.325C36.9591 15.8583 36.9091 15.4083 36.8091 14.975C36.7091 14.5417 36.5341 14.05 36.2841 13.5C36.0341 12.95 35.6841 12.2667 35.2341 11.45L37.0591 10.525C37.6924 11.6083 38.1424 12.6333 38.4091 13.6C38.6924 14.5667 38.8341 15.4167 38.8341 16.15C38.8341 17.2 38.6591 18.15 38.3091 19C37.9757 19.85 37.5257 20.6 36.9591 21.25C36.4091 21.9167 35.8007 22.4833 35.1341 22.95C34.4841 23.4167 33.8257 23.8 33.1591 24.1C32.5091 24.4 31.9257 24.6167 31.4091 24.75ZM47.7638 19.125C46.4304 19.125 45.4054 18.975 44.6888 18.675C43.9888 18.375 43.5054 17.9083 43.2388 17.275C42.9721 16.6417 42.8221 15.825 42.7888 14.825L42.2888 1.15H44.3388L44.8388 14.025C44.8721 14.8417 44.9471 15.475 45.0638 15.925C45.1971 16.3583 45.4804 16.6583 45.9138 16.825C46.3638 16.9917 47.0638 17.075 48.0138 17.075C48.3638 17.075 48.6138 17.175 48.7638 17.375C48.9304 17.5583 49.0138 17.7833 49.0138 18.05C49.0138 18.3167 48.8971 18.5667 48.6638 18.8C48.4304 19.0167 48.1304 19.125 47.7638 19.125ZM47.7642 19.125L48.0142 17.075C48.5475 17.075 48.9808 17.0417 49.3142 16.975C49.6475 16.8917 49.9225 16.7 50.1392 16.4C50.3725 16.0833 50.5892 15.5917 50.7892 14.925C50.9892 14.2583 51.2225 13.325 51.4892 12.125L53.3642 12.65C53.2642 13.0667 53.1475 13.5667 53.0142 14.15C52.8808 14.7333 52.8142 15.2667 52.8142 15.75C52.8142 16.0167 52.8808 16.25 53.0142 16.45C53.1475 16.65 53.3725 16.8083 53.6892 16.925C54.0225 17.025 54.4642 17.075 55.0142 17.075C55.5142 17.075 55.9225 17.0333 56.2392 16.95C56.5558 16.8667 56.8142 16.6667 57.0142 16.35C57.2308 16.0333 57.4225 15.525 57.5892 14.825C57.7558 14.125 57.9308 13.1667 58.1142 11.95L60.0142 12.3C59.9642 12.6 59.9058 12.9667 59.8392 13.4C59.7725 13.8333 59.7058 14.2667 59.6392 14.7C59.5892 15.1167 59.5642 15.4667 59.5642 15.75C59.5642 15.9833 59.6142 16.2083 59.7142 16.425C59.8308 16.625 60.0475 16.7833 60.3642 16.9C60.6975 17.0167 61.1892 17.075 61.8392 17.075C62.6725 17.075 63.2725 16.9 63.6392 16.55C64.0225 16.2 64.2142 15.6667 64.2142 14.95C64.2142 14.5667 64.2058 14.1667 64.1892 13.75C64.1725 13.3167 64.1392 12.8417 64.0892 12.325C64.0558 11.7917 63.9975 11.1833 63.9142 10.5L65.7392 10.375C65.8392 11.725 65.9475 12.8333 66.0642 13.7C66.1975 14.5667 66.3808 15.25 66.6142 15.75C66.8642 16.2333 67.1975 16.575 67.6142 16.775C68.0308 16.975 68.5808 17.075 69.2642 17.075C69.6142 17.075 69.8642 17.175 70.0142 17.375C70.1808 17.5583 70.2642 17.7833 70.2642 18.05C70.2642 18.3167 70.1475 18.5667 69.9142 18.8C69.6808 19.0167 69.3808 19.125 69.0142 19.125C68.4475 19.125 67.9392 19.05 67.4892 18.9C67.0558 18.7333 66.6725 18.5167 66.3392 18.25C66.0225 17.9667 65.7558 17.65 65.5392 17.3C65.3392 16.9333 65.1975 16.55 65.1142 16.15L65.5642 16.3C65.3808 17.05 65.0892 17.6333 64.6892 18.05C64.3058 18.45 63.8475 18.7333 63.3142 18.9C62.7808 19.05 62.2142 19.125 61.6142 19.125C60.8808 19.125 60.2808 19.0333 59.8142 18.85C59.3475 18.6667 58.9808 18.3917 58.7142 18.025C58.4642 17.6417 58.2975 17.1583 58.2142 16.575H59.0642C58.7475 17.2917 58.4142 17.8333 58.0642 18.2C57.7142 18.5667 57.2808 18.8167 56.7642 18.95C56.2475 19.0667 55.5642 19.125 54.7142 19.125C54.2975 19.125 53.8475 19.0583 53.3642 18.925C52.8975 18.7917 52.4892 18.5333 52.1392 18.15C51.7892 17.75 51.5808 17.1583 51.5142 16.375L52.2642 16.225C51.9808 17.075 51.6308 17.7083 51.2142 18.125C50.8142 18.525 50.3308 18.7917 49.7642 18.925C49.1975 19.0583 48.5308 19.125 47.7642 19.125ZM58.5392 5.375C58.1892 5.375 57.8892 5.25833 57.6392 5.025C57.4058 4.775 57.2892 4.48333 57.2892 4.15C57.2892 3.81667 57.4058 3.525 57.6392 3.275C57.8892 3.025 58.1892 2.9 58.5392 2.9C58.8725 2.9 59.1558 3.025 59.3892 3.275C59.6392 3.525 59.7642 3.81667 59.7642 4.15C59.7642 4.48333 59.6392 4.775 59.3892 5.025C59.1558 5.25833 58.8725 5.375 58.5392 5.375ZM56.8392 8.125C56.4892 8.125 56.1892 8.00833 55.9392 7.775C55.7058 7.525 55.5892 7.23333 55.5892 6.9C55.5892 6.56667 55.7058 6.275 55.9392 6.025C56.1892 5.775 56.4892 5.65 56.8392 5.65C57.1725 5.65 57.4558 5.775 57.6892 6.025C57.9392 6.275 58.0642 6.56667 58.0642 6.9C58.0642 7.23333 57.9392 7.525 57.6892 7.775C57.4558 8.00833 57.1725 8.125 56.8392 8.125ZM60.2392 8.125C59.8892 8.125 59.5892 8.00833 59.3392 7.775C59.1058 7.525 58.9892 7.23333 58.9892 6.9C58.9892 6.56667 59.1058 6.275 59.3392 6.025C59.5892 5.775 59.8892 5.65 60.2392 5.65C60.5725 5.65 60.8558 5.775 61.0892 6.025C61.3392 6.275 61.4642 6.56667 61.4642 6.9C61.4642 7.23333 61.3392 7.525 61.0892 7.775C60.8558 8.00833 60.5725 8.125 60.2392 8.125ZM69.0044 19.125L69.2544 17.075C70.0877 17.075 70.7377 17.0167 71.2044 16.9C71.6711 16.7667 72.0211 16.525 72.2544 16.175C72.5044 15.8083 72.7044 15.2833 72.8544 14.6C73.0044 13.9167 73.1877 13.025 73.4044 11.925L75.3544 12.3C75.2877 12.6 75.2127 12.9333 75.1294 13.3C75.0461 13.6667 74.9711 14.0333 74.9044 14.4C74.8544 14.75 74.8294 15.0583 74.8294 15.325C74.8294 15.575 74.8461 15.8083 74.8794 16.025C74.9127 16.2417 75.0377 16.425 75.2544 16.575C75.4711 16.725 75.8377 16.85 76.3544 16.95C76.8711 17.0333 77.6127 17.075 78.5794 17.075C78.9294 17.075 79.1794 17.175 79.3294 17.375C79.4961 17.5583 79.5794 17.7833 79.5794 18.05C79.5794 18.3167 79.4627 18.5667 79.2294 18.8C78.9961 19.0167 78.6961 19.125 78.3294 19.125C77.3127 19.125 76.5044 19.075 75.9044 18.975C75.3044 18.8583 74.8461 18.6917 74.5294 18.475C74.2294 18.2583 74.0127 17.9917 73.8794 17.675C73.7627 17.3417 73.6711 16.9583 73.6044 16.525L74.3544 16.575C74.0877 17.1083 73.7961 17.5417 73.4794 17.875C73.1794 18.2083 72.8294 18.4667 72.4294 18.65C72.0294 18.8333 71.5461 18.9583 70.9794 19.025C70.4294 19.0917 69.7711 19.125 69.0044 19.125ZM75.6794 9.35C75.3294 9.35 75.0294 9.23333 74.7794 9C74.5461 8.75 74.4294 8.45833 74.4294 8.125C74.4294 7.79167 74.5461 7.5 74.7794 7.25C75.0294 7 75.3294 6.875 75.6794 6.875C76.0127 6.875 76.2961 7 76.5294 7.25C76.7794 7.5 76.9044 7.79167 76.9044 8.125C76.9044 8.45833 76.7794 8.75 76.5294 9C76.2961 9.23333 76.0127 9.35 75.6794 9.35ZM72.2544 9.35C71.9044 9.35 71.6044 9.23333 71.3544 9C71.1211 8.75 71.0044 8.45833 71.0044 8.125C71.0044 7.79167 71.1211 7.5 71.3544 7.25C71.6044 7 71.9044 6.875 72.2544 6.875C72.5877 6.875 72.8711 7 73.1044 7.25C73.3544 7.5 73.4794 7.79167 73.4794 8.125C73.4794 8.45833 73.3544 8.75 73.1044 9C72.8711 9.23333 72.5877 9.35 72.2544 9.35ZM78.3306 19.125L78.5806 17.075C79.1139 17.075 79.5472 17.0417 79.8806 16.975C80.2139 16.8917 80.4889 16.7 80.7056 16.4C80.9389 16.0833 81.1556 15.5917 81.3556 14.925C81.5556 14.2583 81.7889 13.325 82.0556 12.125L83.9306 12.65C83.8639 12.9333 83.7889 13.2583 83.7056 13.625C83.6222 13.975 83.5472 14.3417 83.4806 14.725C83.4139 15.0917 83.3806 15.4333 83.3806 15.75C83.3806 16.1667 83.5389 16.4917 83.8556 16.725C84.1722 16.9583 84.7472 17.075 85.5806 17.075C86.0806 17.075 86.4889 17.0333 86.8056 16.95C87.1222 16.8667 87.3806 16.6667 87.5806 16.35C87.7972 16.0333 87.9889 15.525 88.1556 14.825C88.3222 14.125 88.4972 13.1667 88.6806 11.95L90.5806 12.3C90.5306 12.6 90.4722 12.9667 90.4056 13.4C90.3389 13.8333 90.2722 14.2667 90.2056 14.7C90.1556 15.1167 90.1306 15.4667 90.1306 15.75C90.1306 15.9833 90.1806 16.2083 90.2806 16.425C90.3972 16.625 90.6139 16.7833 90.9306 16.9C91.2639 17.0167 91.7556 17.075 92.4056 17.075C92.8889 17.075 93.3056 17.0167 93.6556 16.9C94.0222 16.7833 94.2972 16.5667 94.4806 16.25C94.6806 15.9333 94.7806 15.4917 94.7806 14.925C94.7806 14.2917 94.6306 13.5 94.3306 12.55C94.0472 11.5833 93.7222 10.625 93.3556 9.675L95.3806 8.925C95.5972 9.45833 95.7972 10.0667 95.9806 10.75C96.1806 11.4333 96.3472 12.1083 96.4806 12.775C96.6139 13.4417 96.6806 14.025 96.6806 14.525C96.6806 15.2917 96.5806 15.9667 96.3806 16.55C96.1806 17.1333 95.8972 17.6167 95.5306 18C95.1639 18.3667 94.7139 18.65 94.1806 18.85C93.6472 19.0333 93.0472 19.125 92.3806 19.125C91.5972 19.125 90.9556 19.0333 90.4556 18.85C89.9556 18.6667 89.5722 18.3917 89.3056 18.025C89.0389 17.6417 88.8639 17.1583 88.7806 16.575H89.6306C89.3139 17.2917 88.9806 17.8333 88.6306 18.2C88.2806 18.5667 87.8472 18.8167 87.3306 18.95C86.8139 19.0667 86.1306 19.125 85.2806 19.125C84.8639 19.125 84.4139 19.0583 83.9306 18.925C83.4639 18.7917 83.0556 18.5333 82.7056 18.15C82.3556 17.75 82.1472 17.1583 82.0806 16.375L82.8306 16.225C82.5472 17.075 82.1972 17.7083 81.7806 18.125C81.3806 18.525 80.8972 18.7917 80.3306 18.925C79.7639 19.0583 79.0972 19.125 78.3306 19.125ZM100.235 19L99.7351 1.15H101.76L102.26 19H100.235ZM99.5601 26.575L99.2601 25.225C99.6934 25.125 100.043 25.0417 100.31 24.975C100.577 24.9083 100.877 24.8333 101.21 24.75L101.085 25.275C100.652 25.1417 100.235 24.8583 99.8351 24.425C99.4517 23.9917 99.2601 23.5 99.2601 22.95C99.2601 22.45 99.3767 22.025 99.6101 21.675C99.8601 21.3417 100.177 21.0917 100.56 20.925C100.96 20.7583 101.385 20.675 101.835 20.675C102.018 20.675 102.21 20.6917 102.41 20.725C102.627 20.7583 102.827 20.8083 103.01 20.875L102.81 22.125C102.643 22.0917 102.485 22.0583 102.335 22.025C102.185 21.9917 102.018 21.975 101.835 21.975C101.452 21.975 101.152 22.05 100.935 22.2C100.718 22.3667 100.61 22.5917 100.61 22.875C100.61 23.225 100.718 23.525 100.935 23.775C101.168 24.025 101.427 24.2167 101.71 24.35C102.01 24.5 102.252 24.575 102.435 24.575L101.41 24.675C101.86 24.5583 102.277 24.4333 102.66 24.3C103.06 24.1833 103.418 24.0667 103.735 23.95L104.135 25.225C103.735 25.375 103.26 25.5333 102.71 25.7C102.177 25.8667 101.635 26.025 101.085 26.175C100.535 26.325 100.027 26.4583 99.5601 26.575Z" fill="#E77E5C"/>
<path d="M12.3149 42.0642C12.4346 42.0642 12.494 42.1118 12.494 42.2079V42.7183C12.494 42.8138 12.4346 42.8614 12.3149 42.8614H7.90399C7.65601 42.8614 7.4444 42.789 7.2691 42.6432C7.08923 42.4947 7 42.3176 7 42.1118V35.7545C7 35.5455 7.08923 35.3684 7.2691 35.2225C7.4444 35.074 7.65601 35 7.90399 35H12.1734C12.2891 35 12.3466 35.0493 12.3466 35.1485V35.6536C12.3466 35.7527 12.2891 35.8021 12.1734 35.8021H7.96811V38.4493H11.7375C11.8486 38.4493 11.9042 38.497 11.9042 38.5934V39.1035C11.9042 39.1988 11.8486 39.2471 11.7375 39.2471H7.96811V42.0642H12.3149Z" fill="#E77E5C"/>
<path d="M18.414 42.2024C17.8843 41.7632 17.6191 41.2336 17.6191 40.6133V40.6232C17.6191 40.5245 17.6767 40.4747 17.7924 40.4747H18.4074C18.5231 40.4747 18.5807 40.5245 18.5807 40.6232V40.6133C18.5807 41.0137 18.752 41.3552 19.0938 41.6388C19.4357 41.9228 19.8478 42.0642 20.3312 42.0642C20.81 42.0642 21.2199 41.9228 21.5618 41.6388C21.9037 41.3552 22.075 41.0137 22.075 40.6133V40.347C22.075 40.0674 21.9553 39.8282 21.7159 39.6298C21.4765 39.4313 21.1882 39.3321 20.8503 39.3321H19.8054C19.2029 39.3321 18.6878 39.1545 18.2599 38.8002C17.8328 38.446 17.6191 38.0194 17.6191 37.5193V37.2534C17.6191 36.63 17.8843 36.0982 18.414 35.6591C18.9437 35.2192 19.5832 35 20.3312 35C21.0751 35 21.7113 35.2192 22.2417 35.6591C22.7714 36.1014 23.0366 36.6334 23.0366 37.2534V37.2589C23.0366 37.3544 22.979 37.4027 22.8633 37.4027H22.2482C22.1326 37.4027 22.075 37.3544 22.075 37.2589V37.2534C22.075 36.8531 21.9037 36.5094 21.5618 36.2221C21.2199 35.9424 20.81 35.8021 20.3312 35.8021C19.8478 35.8021 19.4357 35.9424 19.0938 36.2221C18.752 36.5056 18.5807 36.8499 18.5807 37.2534V37.5193C18.5807 37.7996 18.7004 38.0386 18.9398 38.2371C19.1792 38.4355 19.4675 38.5348 19.8054 38.5348H20.8503C21.4574 38.5348 21.9725 38.7119 22.3957 39.0661C22.8229 39.4203 23.0366 39.848 23.0366 40.347V40.6133C23.0366 41.2336 22.7714 41.7632 22.2417 42.2024C21.7113 42.6415 21.0751 42.8614 20.3312 42.8614C19.5832 42.8614 18.9437 42.6415 18.414 42.2024Z" fill="#E77E5C"/>
<path d="M32.4932 35C32.6089 35 32.6664 35.0493 32.6664 35.1485V35.6536C32.6664 35.7527 32.6089 35.8021 32.4932 35.8021H29.9227V42.7129C29.9227 42.812 29.8646 42.8614 29.7495 42.8614H29.1338C29.0187 42.8614 28.9605 42.812 28.9605 42.7129V35.8021H26.3901C26.2743 35.8021 26.2168 35.7527 26.2168 35.6536V35.1485C26.2168 35.0493 26.2743 35 26.3901 35H32.4932Z" fill="#E77E5C"/>
<path d="M36.9488 42.7178C36.9488 42.8132 36.8932 42.8608 36.7822 42.8608H36.1606C36.0448 42.8608 35.9873 42.8132 35.9873 42.7178V35.1495C35.9873 35.0537 36.0448 35.0059 36.1606 35.0059H36.7822C36.8932 35.0059 36.9488 35.0537 36.9488 35.1495V42.7178Z" fill="#E77E5C"/>
<path d="M43.0654 42.2024C42.5356 41.7632 42.2705 41.2336 42.2705 40.6133V40.6232C42.2705 40.5245 42.328 40.4747 42.4438 40.4747H43.0588C43.1744 40.4747 43.2321 40.5245 43.2321 40.6232V40.6133C43.2321 41.0137 43.4026 41.3552 43.7452 41.6388C44.0871 41.9228 44.4991 42.0642 44.9825 42.0642C45.4612 42.0642 45.8713 41.9228 46.2131 41.6388C46.5551 41.3552 46.7263 41.0137 46.7263 40.6133V40.347C46.7263 40.0674 46.6066 39.8282 46.3673 39.6298C46.1279 39.4313 45.8395 39.3321 45.5016 39.3321H44.4568C43.8543 39.3321 43.3392 39.1545 42.9113 38.8002C42.4841 38.446 42.2705 38.0194 42.2705 37.5193V37.2534C42.2705 36.63 42.5356 36.0982 43.0654 35.6591C43.5951 35.2192 44.2346 35 44.9825 35C45.7264 35 46.3627 35.2192 46.8929 35.6591C47.4227 36.1014 47.6879 36.6334 47.6879 37.2534V37.2589C47.6879 37.3544 47.6304 37.4027 47.5146 37.4027H46.8996C46.7839 37.4027 46.7263 37.3544 46.7263 37.2589V37.2534C46.7263 36.8531 46.5551 36.5094 46.2131 36.2221C45.8713 35.9424 45.4612 35.8021 44.9825 35.8021C44.4991 35.8021 44.0871 35.9424 43.7452 36.2221C43.4026 36.5056 43.2321 36.8499 43.2321 37.2534V37.5193C43.2321 37.7996 43.3517 38.0386 43.5911 38.2371C43.8305 38.4355 44.1188 38.5348 44.4568 38.5348H45.5016C46.1086 38.5348 46.6238 38.7119 47.0471 39.0661C47.4742 39.4203 47.6879 39.848 47.6879 40.347V40.6133C47.6879 41.2336 47.4227 41.7632 46.8929 42.2024C46.3627 42.6415 45.7264 42.8614 44.9825 42.8614C44.2346 42.8614 43.5951 42.6415 43.0654 42.2024Z" fill="#E77E5C"/>
<path d="M57.4694 35C57.5891 35 57.6486 35.0493 57.6486 35.1485V42.7129C57.6486 42.812 57.5891 42.8614 57.4694 42.8614H56.8604C56.7406 42.8614 56.6804 42.812 56.6804 42.7129V39.2471H52.8337V42.7129C52.8337 42.812 52.7735 42.8614 52.6544 42.8614H52.0513C51.9323 42.8614 51.8721 42.812 51.8721 42.7129V35.1485C51.8721 35.0493 51.9323 35 52.0513 35H52.6544C52.7735 35 52.8337 35.0493 52.8337 35.1485V38.4493H56.6804V35.1485C56.6804 35.0493 56.7406 35 56.8604 35H57.4694Z" fill="#E77E5C"/>
<path d="M64.2208 35.0059C64.9688 35.0059 65.6075 35.2258 66.1379 35.6649C66.6677 36.1006 66.9328 36.6291 66.9328 37.2485V42.7178C66.9328 42.8132 66.8726 42.8608 66.7537 42.8608H66.1439C66.0242 42.8608 65.9647 42.8132 65.9647 42.7178V39.757H62.4704V42.7178C62.4704 42.8132 62.4128 42.8608 62.2971 42.8608H61.682C61.5663 42.8608 61.5088 42.8132 61.5088 42.7178V37.2485C61.5088 36.6291 61.7733 36.1006 62.3037 35.6649C62.834 35.2258 63.4729 35.0059 64.2208 35.0059ZM65.9647 38.955V37.2485C65.9647 36.8522 65.7934 36.5117 65.4515 36.2284C65.1096 35.9412 64.6989 35.7975 64.2208 35.7975C63.7374 35.7975 63.3254 35.9412 62.9835 36.2284C62.6416 36.5117 62.4704 36.8522 62.4704 37.2485V38.955H65.9647Z" fill="#E77E5C"/>
<path d="M76.551 37.8707C76.551 38.4446 76.2752 38.9139 75.7238 39.279C76.2752 39.6512 76.551 40.1221 76.551 40.6927V42.7178C76.551 42.8132 76.4908 42.8608 76.3711 42.8608H75.7561C75.6404 42.8608 75.5822 42.8132 75.5822 42.7178V40.6927C75.5822 40.4127 75.4631 40.1735 75.2238 39.9752C74.9837 39.7767 74.6954 39.6776 74.3581 39.6776H72.0886V42.7178C72.0886 42.8132 72.0303 42.8608 71.9153 42.8608H71.2996C71.1845 42.8608 71.127 42.8132 71.127 42.7178V35.7552C71.127 35.5464 71.2143 35.3694 71.3895 35.2236C71.5687 35.0789 71.783 35.0059 72.0303 35.0059H74.1657V35.0223C74.8409 35.0894 75.405 35.3337 75.8586 35.7552C76.3202 36.184 76.551 36.6823 76.551 37.2485V37.8707ZM74.3581 38.8798C74.6954 38.8798 74.9837 38.7812 75.2238 38.5828C75.4631 38.3843 75.5822 38.147 75.5822 37.8707V37.2485C75.5822 36.8522 75.4116 36.5117 75.0697 36.2284C74.7278 35.9412 74.3171 35.7975 73.8383 35.7975H72.0886V38.8798H74.3581Z" fill="#E77E5C"/>
<path d="M83.459 35.0059C84.207 35.0059 84.8458 35.2258 85.3762 35.6649C85.9059 36.1006 86.1711 36.6291 86.1711 37.2485V42.7178C86.1711 42.8132 86.1116 42.8608 85.9919 42.8608H85.3828C85.2631 42.8608 85.2029 42.8132 85.2029 42.7178V39.757H81.7092V42.7178C81.7092 42.8132 81.6511 42.8608 81.536 42.8608H80.9203C80.8046 42.8608 80.7471 42.8132 80.7471 42.7178V37.2485C80.7471 36.6291 81.0123 36.1006 81.5426 35.6649C82.0723 35.2258 82.7111 35.0059 83.459 35.0059ZM85.2029 38.955V37.2485C85.2029 36.8522 85.0323 36.5117 84.6904 36.2284C84.3479 35.9412 83.9379 35.7975 83.459 35.7975C82.9763 35.7975 82.5637 35.9412 82.2217 36.2284C81.8799 36.5117 81.7092 36.8522 81.7092 37.2485V38.955H85.2029Z" fill="#E77E5C"/>
<path d="M96.0616 35C96.1773 35 96.2349 35.0493 96.2349 35.1485V35.6536C96.2349 35.7527 96.1773 35.8021 96.0616 35.8021H93.4911V42.7129C93.4911 42.812 93.4329 42.8614 93.3179 42.8614H92.7022C92.5872 42.8614 92.5296 42.812 92.5296 42.7129V35.8021H89.9584C89.8427 35.8021 89.7852 35.7527 89.7852 35.6536V35.1485C89.7852 35.0493 89.8427 35 89.9584 35H96.0616Z" fill="#E77E5C"/>
<path d="M101.367 42.7178C101.367 42.8132 101.311 42.8608 101.2 42.8608H100.579C100.463 42.8608 100.405 42.8132 100.405 42.7178V35.1495C100.405 35.0537 100.463 35.0059 100.579 35.0059H101.2C101.311 35.0059 101.367 35.0537 101.367 35.1495V42.7178Z" fill="#E77E5C"/>
</svg>
