<svg width="198" height="66" viewBox="0 0 198 66" fill="none" xmlns="http://www.w3.org/2000/svg">
<path d="M197.968 35.2644C197.949 34.8703 197.901 34.4826 197.864 34.0926C197.817 33.6944 197.742 33.2632 197.677 32.8525L197.651 32.6968L197.626 32.5804L197.577 32.3484L197.478 31.8854L197.453 31.7699L197.417 31.6086L197.4 31.5431L197.33 31.2792L197.189 30.7525C196.992 30.0516 196.772 29.3511 196.51 28.6603C195.992 27.2769 195.337 25.9194 194.513 24.6474C193.685 23.3799 192.708 22.1925 191.585 21.1848C190.461 20.1799 189.222 19.3343 187.934 18.7165C186.653 18.0826 185.339 17.6603 184.067 17.3951C182.795 17.1206 181.561 17.0171 180.394 17.0019C179.225 16.9856 178.121 17.0762 177.085 17.2222C175.013 17.517 173.213 18.034 171.679 18.6005C170.145 19.1661 168.871 19.7723 167.855 20.3235C167.345 20.597 166.9 20.8553 166.52 21.0928C166.139 21.3252 165.822 21.5378 165.568 21.7129C165.061 22.0627 164.807 22.2729 164.807 22.2729L165.735 22.1445C166.035 22.108 166.406 22.0622 166.841 22.0086C167.275 21.962 167.771 21.907 168.324 21.8547C169.432 21.7554 170.766 21.6537 172.269 21.6251C173.771 21.5993 175.443 21.6348 177.18 21.8497C178.914 22.0608 180.716 22.4591 182.357 23.1647C184.007 23.8638 185.443 24.8812 186.574 26.217C187.702 27.5578 188.564 29.2416 189.157 31.2062C189.302 31.6969 189.441 32.1996 189.558 32.7167L189.643 33.1075L189.68 33.279L189.685 33.3063L189.705 33.4231L189.79 33.8889L189.833 34.1217L189.854 34.2377L189.862 34.3172C189.881 34.5325 189.912 34.7261 189.932 34.9576C189.944 35.1993 189.972 35.4419 189.981 35.6812C189.981 35.9196 190.002 36.1599 189.992 36.3965L189.981 36.7503C189.98 36.8691 189.975 36.9865 189.961 37.1029C189.83 38.9723 189.285 40.7642 188.311 42.4701C187.348 44.1746 186.013 45.7867 184.5 47.2426C182.984 48.7004 181.312 50.014 179.636 51.1946C177.959 52.3755 176.277 53.4286 174.685 54.373C173.093 55.3179 171.585 56.1445 170.233 56.8783C168.879 57.606 167.677 58.227 166.679 58.7403L163.504 60.3515C163.504 60.3515 163.833 60.3774 164.448 60.382C164.756 60.3852 165.135 60.3843 165.579 60.3695C166.026 60.3603 166.536 60.3335 167.108 60.2937C168.252 60.2179 169.636 60.0678 171.218 59.816C172.799 59.5614 174.575 59.1946 176.491 58.6576C178.407 58.1193 180.466 57.4156 182.595 56.462C184.723 55.5065 186.925 54.2991 189.068 52.7055C191.201 51.1105 193.295 49.1047 194.955 46.5445C195.782 45.2687 196.498 43.8591 197.007 42.3472C197.528 40.8414 197.844 39.2431 197.957 37.6472C197.976 37.4476 197.984 37.248 197.986 37.0489L197.998 36.4515C198.006 36.0531 197.979 35.66 197.968 35.2644Z" fill="#E77E5C"/>
<path d="M134.557 43.584C134.722 44.6647 134.981 45.7329 135.337 46.7588C135.482 47.1898 135.635 47.6116 135.812 48.0256C136.254 49.063 136.792 50.0438 137.383 50.9556C139.044 53.5157 141.14 55.522 143.272 57.1169C145.415 58.7106 147.619 59.9175 149.747 60.8729C151.876 61.8271 153.936 62.5304 155.852 63.0687C156.547 63.2637 162.381 61.4353 162.11 61.2898C160.759 60.556 159.251 59.5903 157.658 58.645C156.981 58.2434 153.671 56.1458 152.707 55.4669C151.032 54.2864 149.359 53.0001 147.844 51.5428C146.331 50.0869 143.267 45.8928 143.004 43.584" fill="#E77E5C"/>
<path d="M161.125 28.8911C161.563 29.2086 161.951 29.5454 162.272 29.8948C164.41 32.2235 165.837 34.3646 166.016 37.4257H172.315C171.978 33.0353 170.239 29.2322 167.048 26.0162C166.422 25.3903 165.79 24.8284 165.148 24.3242C165.062 24.3815 164.978 24.4388 164.894 24.4966C163.582 25.4895 162.334 27.0277 161.125 28.8911Z" fill="#E77E5C"/>
<path d="M166.785 64.01L165.052 63.1122C164.746 62.9519 164.43 62.7855 164.102 62.6113C162.498 63.4952 160.824 64.1205 159.078 64.4872C160.23 64.7557 161.318 64.9641 162.325 65.1262C163.907 65.3785 165.291 65.5283 166.435 65.6041C167.007 65.6442 167.517 65.6705 167.963 65.6798C168.408 65.6946 168.788 65.6956 169.095 65.6927C169.71 65.6876 170.039 65.6622 170.039 65.6622L166.864 64.051L166.785 64.01Z" fill="#E77E5C"/>
<path d="M165.148 24.3248L165.163 24.3151L165.154 24.3086C165.067 24.3691 164.98 24.432 164.895 24.4972C164.978 24.4394 165.062 24.3821 165.148 24.3248Z" fill="#525252"/>
<path d="M153.995 26.9818C153.995 26.9818 157.674 26.8196 160.806 28.7278C161.389 27.1906 162.463 24.6997 163.737 23.3519C160.862 21.5056 157.613 20.5801 153.978 20.5801C152.336 20.5801 150.776 20.7695 149.295 21.1475C149.295 21.1475 147.567 21.4445 144.342 23.0955C143.071 23.746 141.818 24.5583 140.694 25.5637C139.57 26.5715 138.594 27.759 137.767 29.0259C136.943 30.2984 136.289 31.6559 135.771 33.0392C135.508 33.73 135.289 34.4305 135.092 35.1314L134.951 35.6577L134.881 35.9215L134.864 35.9876L134.829 36.1489L134.803 36.2643L134.704 36.7274L134.655 36.9594L134.564 37.4265L131.738 37.4269C131.738 37.4269 130.691 37.4038 130.349 37.5059C130.349 37.5059 129.826 37.5789 129.301 38.0747C129.301 38.0747 128.888 38.4305 128.799 38.7156C128.799 38.7156 128.643 39.0192 128.657 39.6193V43.5837H169.234C170.114 43.5837 170.816 43.61 171.414 43.1471C172.11 42.6065 172.315 42.2706 172.315 41.3908V37.4265H142.033C142.231 34.3483 143.48 32.032 145.779 29.8756C145.779 29.8756 148.451 27.1675 153.995 26.9818Z" fill="#84AA43"/>
<path d="M10.3696 41.025C10.3696 40.625 10.403 40.2 10.4696 39.75C10.553 39.2833 10.6696 38.7917 10.8196 38.275C10.9863 37.7417 11.1863 37.1833 11.4196 36.6L13.2196 37.3C13.053 37.7667 12.903 38.2083 12.7696 38.625C12.653 39.0417 12.5613 39.4333 12.4946 39.8C12.4446 40.1667 12.4196 40.5167 12.4196 40.85C12.4196 41.55 12.5696 42.1417 12.8696 42.625C13.1863 43.125 13.6196 43.5333 14.1696 43.85C14.7196 44.1667 15.3446 44.4 16.0446 44.55C16.7613 44.7 17.5196 44.775 18.3196 44.775C19.2863 44.775 20.1863 44.6917 21.0196 44.525C21.8696 44.3583 22.6113 44.1167 23.2446 43.8C23.8946 43.5 24.403 43.15 24.7696 42.75C25.1363 42.3667 25.3196 41.95 25.3196 41.5C25.3196 41.2833 25.2363 41.0833 25.0696 40.9C24.903 40.7167 24.653 40.5417 24.3196 40.375C23.9863 40.2083 23.5863 40.05 23.1196 39.9C22.653 39.7333 22.1196 39.5667 21.5196 39.4L21.9946 37.325C22.8613 37.6583 23.628 37.9417 24.2946 38.175C24.9613 38.3917 25.5446 38.5667 26.0446 38.7C26.5446 38.8333 26.978 38.9333 27.3446 39C27.7113 39.05 28.0196 39.075 28.2696 39.075C28.6196 39.075 28.8696 39.175 29.0196 39.375C29.1863 39.5583 29.2696 39.7833 29.2696 40.05C29.2696 40.3167 29.153 40.5667 28.9196 40.8C28.6863 41.0167 28.3863 41.125 28.0196 41.125C27.9196 41.125 27.8196 41.125 27.7196 41.125C27.6196 41.125 27.5113 41.125 27.3946 41.125C27.2946 41.125 27.1946 41.125 27.0946 41.125C27.128 41.275 27.153 41.3917 27.1696 41.475C27.1863 41.575 27.1946 41.7 27.1946 41.85C27.1946 42.4667 26.978 43.0667 26.5446 43.65C26.128 44.2333 25.5113 44.7583 24.6946 45.225C23.878 45.7083 22.8863 46.0917 21.7196 46.375C20.5696 46.6583 19.253 46.8 17.7696 46.8C16.453 46.8 15.228 46.5833 14.0946 46.15C12.978 45.7333 12.078 45.1 11.3946 44.25C10.7113 43.4 10.3696 42.325 10.3696 41.025ZM19.5696 51.525C19.2196 51.525 18.9196 51.4 18.6696 51.15C18.4363 50.9167 18.3196 50.6333 18.3196 50.3C18.3196 49.9667 18.4363 49.675 18.6696 49.425C18.9196 49.175 19.2196 49.05 19.5696 49.05C19.903 49.05 20.1863 49.175 20.4196 49.425C20.6696 49.675 20.7946 49.9667 20.7946 50.3C20.7946 50.6333 20.6696 50.9167 20.4196 51.15C20.1863 51.4 19.903 51.525 19.5696 51.525ZM16.1446 51.525C15.7946 51.525 15.4946 51.4 15.2446 51.15C15.0113 50.9167 14.8946 50.6333 14.8946 50.3C14.8946 49.9667 15.0113 49.675 15.2446 49.425C15.4946 49.175 15.7946 49.05 16.1446 49.05C16.478 49.05 16.7613 49.175 16.9946 49.425C17.2446 49.675 17.3696 49.9667 17.3696 50.3C17.3696 50.6333 17.2446 50.9167 16.9946 51.15C16.7613 51.4 16.478 51.525 16.1446 51.525ZM28.0278 41.125L28.2778 39.075C29.2612 39.075 30.0278 39.0417 30.5778 38.975C31.1278 38.8917 31.5195 38.7 31.7528 38.4C31.9862 38.0833 32.1028 37.5917 32.1028 36.925C32.1028 36.5083 32.0362 36.0167 31.9028 35.45C31.7695 34.8667 31.5945 34.25 31.3778 33.6C31.1612 32.95 30.9278 32.3083 30.6778 31.675L32.7028 30.925C32.9195 31.4583 33.1195 32.0667 33.3028 32.75C33.5028 33.4333 33.6695 34.1083 33.8028 34.775C33.9362 35.4417 34.0028 36.025 34.0028 36.525C34.0028 37.3583 33.8862 38.0667 33.6528 38.65C33.4362 39.2333 33.0862 39.7083 32.6028 40.075C32.1195 40.4417 31.4945 40.7083 30.7278 40.875C29.9778 41.0417 29.0778 41.125 28.0278 41.125ZM33.4778 28.325C33.1278 28.325 32.8278 28.2083 32.5778 27.975C32.3445 27.725 32.2278 27.4333 32.2278 27.1C32.2278 26.7667 32.3445 26.475 32.5778 26.225C32.8278 25.975 33.1278 25.85 33.4778 25.85C33.8112 25.85 34.0945 25.975 34.3278 26.225C34.5778 26.475 34.7028 26.7667 34.7028 27.1C34.7028 27.4333 34.5778 27.725 34.3278 27.975C34.0945 28.2083 33.8112 28.325 33.4778 28.325ZM30.0528 28.325C29.7028 28.325 29.4028 28.2083 29.1528 27.975C28.9195 27.725 28.8028 27.4333 28.8028 27.1C28.8028 26.7667 28.9195 26.475 29.1528 26.225C29.4028 25.975 29.7028 25.85 30.0528 25.85C30.3862 25.85 30.6695 25.975 30.9028 26.225C31.1528 26.475 31.2778 26.7667 31.2778 27.1C31.2778 27.4333 31.1528 27.725 30.9028 27.975C30.6695 28.2083 30.3862 28.325 30.0528 28.325ZM37.7985 41L37.2985 23.15H39.3235L39.8235 41H37.7985ZM40.9208 46.75L40.1958 44.85C41.8791 44.3167 43.1708 43.675 44.0708 42.925C44.9875 42.1917 45.6125 41.425 45.9458 40.625C46.2958 39.825 46.4708 39.0583 46.4708 38.325C46.4708 37.8583 46.4208 37.4083 46.3208 36.975C46.2208 36.5417 46.0458 36.05 45.7958 35.5C45.5458 34.95 45.1958 34.2667 44.7458 33.45L46.5708 32.525C47.2041 33.6083 47.6541 34.6333 47.9208 35.6C48.2041 36.5667 48.3458 37.4167 48.3458 38.15C48.3458 39.2 48.1708 40.15 47.8208 41C47.4875 41.85 47.0375 42.6 46.4708 43.25C45.9208 43.9167 45.3125 44.4833 44.6458 44.95C43.9958 45.4167 43.3375 45.8 42.6708 46.1C42.0208 46.4 41.4375 46.6167 40.9208 46.75ZM57.2755 41.125C55.9422 41.125 54.9172 40.975 54.2005 40.675C53.5005 40.375 53.0172 39.9083 52.7505 39.275C52.4838 38.6417 52.3338 37.825 52.3005 36.825L51.8005 23.15H53.8505L54.3505 36.025C54.3838 36.8417 54.4588 37.475 54.5755 37.925C54.7088 38.3583 54.9922 38.6583 55.4255 38.825C55.8755 38.9917 56.5755 39.075 57.5255 39.075C57.8755 39.075 58.1255 39.175 58.2755 39.375C58.4422 39.5583 58.5255 39.7833 58.5255 40.05C58.5255 40.3167 58.4088 40.5667 58.1755 40.8C57.9422 41.0167 57.6422 41.125 57.2755 41.125ZM57.2759 41.125L57.5259 39.075C58.0592 39.075 58.4925 39.0417 58.8259 38.975C59.1592 38.8917 59.4342 38.7 59.6509 38.4C59.8842 38.0833 60.1009 37.5917 60.3009 36.925C60.5009 36.2583 60.7342 35.325 61.0009 34.125L62.8759 34.65C62.7759 35.0667 62.6592 35.5667 62.5259 36.15C62.3925 36.7333 62.3259 37.2667 62.3259 37.75C62.3259 38.0167 62.3925 38.25 62.5259 38.45C62.6592 38.65 62.8842 38.8083 63.2009 38.925C63.5342 39.025 63.9759 39.075 64.5259 39.075C65.0259 39.075 65.4342 39.0333 65.7509 38.95C66.0675 38.8667 66.3259 38.6667 66.5259 38.35C66.7425 38.0333 66.9342 37.525 67.1009 36.825C67.2675 36.125 67.4425 35.1667 67.6259 33.95L69.5259 34.3C69.4759 34.6 69.4175 34.9667 69.3509 35.4C69.2842 35.8333 69.2175 36.2667 69.1509 36.7C69.1009 37.1167 69.0759 37.4667 69.0759 37.75C69.0759 37.9833 69.1259 38.2083 69.2259 38.425C69.3425 38.625 69.5592 38.7833 69.8759 38.9C70.2092 39.0167 70.7009 39.075 71.3509 39.075C72.1842 39.075 72.7842 38.9 73.1509 38.55C73.5342 38.2 73.7259 37.6667 73.7259 36.95C73.7259 36.5667 73.7175 36.1667 73.7009 35.75C73.6842 35.3167 73.6509 34.8417 73.6009 34.325C73.5675 33.7917 73.5092 33.1833 73.4259 32.5L75.2509 32.375C75.3509 33.725 75.4592 34.8333 75.5759 35.7C75.7092 36.5667 75.8925 37.25 76.1259 37.75C76.3759 38.2333 76.7092 38.575 77.1259 38.775C77.5425 38.975 78.0925 39.075 78.7759 39.075C79.1259 39.075 79.3759 39.175 79.5259 39.375C79.6925 39.5583 79.7759 39.7833 79.7759 40.05C79.7759 40.3167 79.6592 40.5667 79.4259 40.8C79.1925 41.0167 78.8925 41.125 78.5259 41.125C77.9592 41.125 77.4509 41.05 77.0009 40.9C76.5675 40.7333 76.1842 40.5167 75.8509 40.25C75.5342 39.9667 75.2675 39.65 75.0509 39.3C74.8509 38.9333 74.7092 38.55 74.6259 38.15L75.0759 38.3C74.8925 39.05 74.6009 39.6333 74.2009 40.05C73.8175 40.45 73.3592 40.7333 72.8259 40.9C72.2925 41.05 71.7259 41.125 71.1259 41.125C70.3925 41.125 69.7925 41.0333 69.3259 40.85C68.8592 40.6667 68.4925 40.3917 68.2259 40.025C67.9759 39.6417 67.8092 39.1583 67.7259 38.575H68.5759C68.2592 39.2917 67.9259 39.8333 67.5759 40.2C67.2259 40.5667 66.7925 40.8167 66.2759 40.95C65.7592 41.0667 65.0759 41.125 64.2259 41.125C63.8092 41.125 63.3592 41.0583 62.8759 40.925C62.4092 40.7917 62.0009 40.5333 61.6509 40.15C61.3009 39.75 61.0925 39.1583 61.0259 38.375L61.7759 38.225C61.4925 39.075 61.1425 39.7083 60.7259 40.125C60.3259 40.525 59.8425 40.7917 59.2759 40.925C58.7092 41.0583 58.0425 41.125 57.2759 41.125ZM68.0509 27.375C67.7009 27.375 67.4009 27.2583 67.1509 27.025C66.9175 26.775 66.8009 26.4833 66.8009 26.15C66.8009 25.8167 66.9175 25.525 67.1509 25.275C67.4009 25.025 67.7009 24.9 68.0509 24.9C68.3842 24.9 68.6675 25.025 68.9009 25.275C69.1509 25.525 69.2759 25.8167 69.2759 26.15C69.2759 26.4833 69.1509 26.775 68.9009 27.025C68.6675 27.2583 68.3842 27.375 68.0509 27.375ZM66.3509 30.125C66.0009 30.125 65.7009 30.0083 65.4509 29.775C65.2175 29.525 65.1009 29.2333 65.1009 28.9C65.1009 28.5667 65.2175 28.275 65.4509 28.025C65.7009 27.775 66.0009 27.65 66.3509 27.65C66.6842 27.65 66.9675 27.775 67.2009 28.025C67.4509 28.275 67.5759 28.5667 67.5759 28.9C67.5759 29.2333 67.4509 29.525 67.2009 29.775C66.9675 30.0083 66.6842 30.125 66.3509 30.125ZM69.7509 30.125C69.4009 30.125 69.1009 30.0083 68.8509 29.775C68.6175 29.525 68.5009 29.2333 68.5009 28.9C68.5009 28.5667 68.6175 28.275 68.8509 28.025C69.1009 27.775 69.4009 27.65 69.7509 27.65C70.0842 27.65 70.3675 27.775 70.6009 28.025C70.8509 28.275 70.9759 28.5667 70.9759 28.9C70.9759 29.2333 70.8509 29.525 70.6009 29.775C70.3675 30.0083 70.0842 30.125 69.7509 30.125ZM78.5161 41.125L78.7661 39.075C79.5994 39.075 80.2494 39.0167 80.7161 38.9C81.1828 38.7667 81.5328 38.525 81.7661 38.175C82.0161 37.8083 82.2161 37.2833 82.3661 36.6C82.5161 35.9167 82.6994 35.025 82.9161 33.925L84.8661 34.3C84.7994 34.6 84.7244 34.9333 84.6411 35.3C84.5578 35.6667 84.4828 36.0333 84.4161 36.4C84.3661 36.75 84.3411 37.0583 84.3411 37.325C84.3411 37.575 84.3578 37.8083 84.3911 38.025C84.4244 38.2417 84.5494 38.425 84.7661 38.575C84.9828 38.725 85.3494 38.85 85.8661 38.95C86.3828 39.0333 87.1244 39.075 88.0911 39.075C88.4411 39.075 88.6911 39.175 88.8411 39.375C89.0078 39.5583 89.0911 39.7833 89.0911 40.05C89.0911 40.3167 88.9744 40.5667 88.7411 40.8C88.5078 41.0167 88.2078 41.125 87.8411 41.125C86.8244 41.125 86.0161 41.075 85.4161 40.975C84.8161 40.8583 84.3578 40.6917 84.0411 40.475C83.7411 40.2583 83.5244 39.9917 83.3911 39.675C83.2744 39.3417 83.1828 38.9583 83.1161 38.525L83.8661 38.575C83.5994 39.1083 83.3078 39.5417 82.9911 39.875C82.6911 40.2083 82.3411 40.4667 81.9411 40.65C81.5411 40.8333 81.0578 40.9583 80.4911 41.025C79.9411 41.0917 79.2828 41.125 78.5161 41.125ZM85.1911 31.35C84.8411 31.35 84.5411 31.2333 84.2911 31C84.0578 30.75 83.9411 30.4583 83.9411 30.125C83.9411 29.7917 84.0578 29.5 84.2911 29.25C84.5411 29 84.8411 28.875 85.1911 28.875C85.5244 28.875 85.8078 29 86.0411 29.25C86.2911 29.5 86.4161 29.7917 86.4161 30.125C86.4161 30.4583 86.2911 30.75 86.0411 31C85.8078 31.2333 85.5244 31.35 85.1911 31.35ZM81.7661 31.35C81.4161 31.35 81.1161 31.2333 80.8661 31C80.6328 30.75 80.5161 30.4583 80.5161 30.125C80.5161 29.7917 80.6328 29.5 80.8661 29.25C81.1161 29 81.4161 28.875 81.7661 28.875C82.0994 28.875 82.3828 29 82.6161 29.25C82.8661 29.5 82.9911 29.7917 82.9911 30.125C82.9911 30.4583 82.8661 30.75 82.6161 31C82.3828 31.2333 82.0994 31.35 81.7661 31.35ZM87.8423 41.125L88.0923 39.075C88.6256 39.075 89.059 39.0417 89.3923 38.975C89.7256 38.8917 90.0006 38.7 90.2173 38.4C90.4506 38.0833 90.6673 37.5917 90.8673 36.925C91.0673 36.2583 91.3006 35.325 91.5673 34.125L93.4423 34.65C93.3756 34.9333 93.3006 35.2583 93.2173 35.625C93.134 35.975 93.059 36.3417 92.9923 36.725C92.9256 37.0917 92.8923 37.4333 92.8923 37.75C92.8923 38.1667 93.0506 38.4917 93.3673 38.725C93.684 38.9583 94.259 39.075 95.0923 39.075C95.5923 39.075 96.0006 39.0333 96.3173 38.95C96.634 38.8667 96.8923 38.6667 97.0923 38.35C97.309 38.0333 97.5006 37.525 97.6673 36.825C97.834 36.125 98.009 35.1667 98.1923 33.95L100.092 34.3C100.042 34.6 99.984 34.9667 99.9173 35.4C99.8506 35.8333 99.784 36.2667 99.7173 36.7C99.6673 37.1167 99.6423 37.4667 99.6423 37.75C99.6423 37.9833 99.6923 38.2083 99.7923 38.425C99.909 38.625 100.126 38.7833 100.442 38.9C100.776 39.0167 101.267 39.075 101.917 39.075C102.401 39.075 102.817 39.0167 103.167 38.9C103.534 38.7833 103.809 38.5667 103.992 38.25C104.192 37.9333 104.292 37.4917 104.292 36.925C104.292 36.2917 104.142 35.5 103.842 34.55C103.559 33.5833 103.234 32.625 102.867 31.675L104.892 30.925C105.109 31.4583 105.309 32.0667 105.492 32.75C105.692 33.4333 105.859 34.1083 105.992 34.775C106.126 35.4417 106.192 36.025 106.192 36.525C106.192 37.2917 106.092 37.9667 105.892 38.55C105.692 39.1333 105.409 39.6167 105.042 40C104.676 40.3667 104.226 40.65 103.692 40.85C103.159 41.0333 102.559 41.125 101.892 41.125C101.109 41.125 100.467 41.0333 99.9673 40.85C99.4673 40.6667 99.084 40.3917 98.8173 40.025C98.5506 39.6417 98.3756 39.1583 98.2923 38.575H99.1423C98.8256 39.2917 98.4923 39.8333 98.1423 40.2C97.7923 40.5667 97.359 40.8167 96.8423 40.95C96.3256 41.0667 95.6423 41.125 94.7923 41.125C94.3756 41.125 93.9256 41.0583 93.4423 40.925C92.9756 40.7917 92.5673 40.5333 92.2173 40.15C91.8673 39.75 91.659 39.1583 91.5923 38.375L92.3423 38.225C92.059 39.075 91.709 39.7083 91.2923 40.125C90.8923 40.525 90.409 40.7917 89.8423 40.925C89.2756 41.0583 88.609 41.125 87.8423 41.125ZM109.747 41L109.247 23.15H111.272L111.772 41H109.747ZM109.072 48.575L108.772 47.225C109.205 47.125 109.555 47.0417 109.822 46.975C110.088 46.9083 110.388 46.8333 110.722 46.75L110.597 47.275C110.163 47.1417 109.747 46.8583 109.347 46.425C108.963 45.9917 108.772 45.5 108.772 44.95C108.772 44.45 108.888 44.025 109.122 43.675C109.372 43.3417 109.688 43.0917 110.072 42.925C110.472 42.7583 110.897 42.675 111.347 42.675C111.53 42.675 111.722 42.6917 111.922 42.725C112.138 42.7583 112.338 42.8083 112.522 42.875L112.322 44.125C112.155 44.0917 111.997 44.0583 111.847 44.025C111.697 43.9917 111.53 43.975 111.347 43.975C110.963 43.975 110.663 44.05 110.447 44.2C110.23 44.3667 110.122 44.5917 110.122 44.875C110.122 45.225 110.23 45.525 110.447 45.775C110.68 46.025 110.938 46.2167 111.222 46.35C111.522 46.5 111.763 46.575 111.947 46.575L110.922 46.675C111.372 46.5583 111.788 46.4333 112.172 46.3C112.572 46.1833 112.93 46.0667 113.247 45.95L113.647 47.225C113.247 47.375 112.772 47.5333 112.222 47.7C111.688 47.8667 111.147 48.025 110.597 48.175C110.047 48.325 109.538 48.4583 109.072 48.575Z" fill="white"/>
<path d="M19.643 64.8962C19.7627 64.8962 19.8222 64.9438 19.8222 65.0399V65.5504C19.8222 65.6458 19.7627 65.6934 19.643 65.6934H15.2321C14.9841 65.6934 14.7725 65.621 14.5972 65.4752C14.4174 65.3267 14.3281 65.1496 14.3281 64.9438V58.5865C14.3281 58.3775 14.4174 58.2004 14.5972 58.0546C14.7725 57.9061 14.9841 57.832 15.2321 57.832H19.5015C19.6172 57.832 19.6747 57.8813 19.6747 57.9805V58.4856C19.6747 58.5847 19.6172 58.6341 19.5015 58.6341H15.2962V61.2813H19.0657C19.1768 61.2813 19.2324 61.329 19.2324 61.4255V61.9355C19.2324 62.0308 19.1768 62.0791 19.0657 62.0791H15.2962V64.8962H19.643Z" fill="white"/>
<path d="M25.7421 65.0344C25.2125 64.5952 24.9473 64.0657 24.9473 63.4454V63.4553C24.9473 63.3566 25.0048 63.3067 25.1205 63.3067H25.7355C25.8513 63.3067 25.9088 63.3566 25.9088 63.4553V63.4454C25.9088 63.8458 26.0801 64.1873 26.4219 64.4708C26.7639 64.7548 27.1759 64.8962 27.6593 64.8962C28.1381 64.8962 28.548 64.7548 28.89 64.4708C29.2319 64.1873 29.4031 63.8458 29.4031 63.4454V63.179C29.4031 62.8994 29.2834 62.6603 29.044 62.4618C28.8046 62.2634 28.5163 62.1641 28.1784 62.1641H27.1335C26.5311 62.1641 26.0159 61.9865 25.5881 61.6322C25.1609 61.278 24.9473 60.8514 24.9473 60.3514V60.0854C24.9473 59.462 25.2125 58.9302 25.7421 58.4911C26.2719 58.0513 26.9113 57.832 27.6593 57.832C28.4032 57.832 29.0394 58.0513 29.5698 58.4911C30.0995 58.9335 30.3647 59.4654 30.3647 60.0854V60.0909C30.3647 60.1865 30.3071 60.2347 30.1914 60.2347H29.5764C29.4607 60.2347 29.4031 60.1865 29.4031 60.0909V60.0854C29.4031 59.6852 29.2319 59.3414 28.89 59.0541C28.548 58.7744 28.1381 58.6341 27.6593 58.6341C27.1759 58.6341 26.7639 58.7744 26.4219 59.0541C26.0801 59.3376 25.9088 59.6819 25.9088 60.0854V60.3514C25.9088 60.6317 26.0285 60.8706 26.2679 61.0691C26.5073 61.2676 26.7957 61.3668 27.1335 61.3668H28.1784C28.7855 61.3668 29.3006 61.5439 29.7238 61.8981C30.1511 62.2524 30.3647 62.6801 30.3647 63.179V63.4454C30.3647 64.0657 30.0995 64.5952 29.5698 65.0344C29.0394 65.4736 28.4032 65.6934 27.6593 65.6934C26.9113 65.6934 26.2719 65.4736 25.7421 65.0344Z" fill="white"/>
<path d="M39.8214 57.832C39.9371 57.832 39.9946 57.8813 39.9946 57.9805V58.4856C39.9946 58.5847 39.9371 58.6341 39.8214 58.6341H37.2509V65.5449C37.2509 65.644 37.1927 65.6934 37.0776 65.6934H36.4619C36.3469 65.6934 36.2886 65.644 36.2886 65.5449V58.6341H33.7182C33.6024 58.6341 33.5449 58.5847 33.5449 58.4856V57.9805C33.5449 57.8813 33.6024 57.832 33.7182 57.832H39.8214Z" fill="white"/>
<path d="M44.2779 65.5498C44.2779 65.6452 44.2224 65.6929 44.1113 65.6929H43.4897C43.3739 65.6929 43.3164 65.6452 43.3164 65.5498V57.9816C43.3164 57.8857 43.3739 57.8379 43.4897 57.8379H44.1113C44.2224 57.8379 44.2779 57.8857 44.2779 57.9816V65.5498Z" fill="white"/>
<path d="M50.3925 65.0344C49.8628 64.5952 49.5977 64.0657 49.5977 63.4454V63.4553C49.5977 63.3566 49.6552 63.3067 49.7709 63.3067H50.3859C50.5016 63.3067 50.5592 63.3566 50.5592 63.4553V63.4454C50.5592 63.8458 50.7298 64.1873 51.0723 64.4708C51.4142 64.7548 51.8262 64.8962 52.3096 64.8962C52.7884 64.8962 53.1984 64.7548 53.5403 64.4708C53.8823 64.1873 54.0535 63.8458 54.0535 63.4454V63.179C54.0535 62.8994 53.9338 62.6603 53.6945 62.4618C53.455 62.2634 53.1667 62.1641 52.8287 62.1641H51.7839C51.1815 62.1641 50.6663 61.9865 50.2384 61.6322C49.8112 61.278 49.5977 60.8514 49.5977 60.3514V60.0854C49.5977 59.462 49.8628 58.9302 50.3925 58.4911C50.9222 58.0513 51.5617 57.832 52.3096 57.832C53.0536 57.832 53.6898 58.0513 54.2201 58.4911C54.7499 58.9335 55.015 59.4654 55.015 60.0854V60.0909C55.015 60.1865 54.9575 60.2347 54.8418 60.2347H54.2267C54.111 60.2347 54.0535 60.1865 54.0535 60.0909V60.0854C54.0535 59.6852 53.8823 59.3414 53.5403 59.0541C53.1984 58.7744 52.7884 58.6341 52.3096 58.6341C51.8262 58.6341 51.4142 58.7744 51.0723 59.0541C50.7298 59.3376 50.5592 59.6819 50.5592 60.0854V60.3514C50.5592 60.6317 50.6789 60.8706 50.9183 61.0691C51.1577 61.2676 51.446 61.3668 51.7839 61.3668H52.8287C53.4358 61.3668 53.951 61.5439 54.3743 61.8981C54.8014 62.2524 55.015 62.6801 55.015 63.179V63.4454C55.015 64.0657 54.7499 64.5952 54.2201 65.0344C53.6898 65.4736 53.0536 65.6934 52.3096 65.6934C51.5617 65.6934 50.9222 65.4736 50.3925 65.0344Z" fill="white"/>
<path d="M64.7985 57.832C64.9182 57.832 64.9777 57.8813 64.9777 57.9805V65.5449C64.9777 65.644 64.9182 65.6934 64.7985 65.6934H64.1895C64.0697 65.6934 64.0095 65.644 64.0095 65.5449V62.0791H60.1628V65.5449C60.1628 65.644 60.1026 65.6934 59.9835 65.6934H59.3804C59.2614 65.6934 59.2012 65.644 59.2012 65.5449V57.9805C59.2012 57.8813 59.2614 57.832 59.3804 57.832H59.9835C60.1026 57.832 60.1628 57.8813 60.1628 57.9805V61.2813H64.0095V57.9805C64.0095 57.8813 64.0697 57.832 64.1895 57.832H64.7985Z" fill="white"/>
<path d="M71.548 57.8379C72.2959 57.8379 72.9347 58.0578 73.4651 58.4969C73.9948 58.9326 74.2599 59.4611 74.2599 60.0806V65.5498C74.2599 65.6452 74.1997 65.6929 74.0808 65.6929H73.471C73.3513 65.6929 73.2918 65.6452 73.2918 65.5498V62.5891H69.7975V65.5498C69.7975 65.6452 69.7399 65.6929 69.6243 65.6929H69.0092C68.8935 65.6929 68.8359 65.6452 68.8359 65.5498V60.0806C68.8359 59.4611 69.1005 58.9326 69.6309 58.4969C70.1612 58.0578 70.8 57.8379 71.548 57.8379ZM73.2918 61.787V60.0806C73.2918 59.6843 73.1205 59.3438 72.7787 59.0604C72.4368 58.7733 72.0261 58.6296 71.548 58.6296C71.0645 58.6296 70.6526 58.7733 70.3107 59.0604C69.9688 59.3438 69.7975 59.6843 69.7975 60.0806V61.787H73.2918Z" fill="white"/>
<path d="M83.8792 60.7028C83.8792 61.2767 83.6033 61.746 83.0519 62.111C83.6033 62.4832 83.8792 62.9542 83.8792 63.5248V65.5498C83.8792 65.6452 83.8189 65.6929 83.6992 65.6929H83.0842C82.9685 65.6929 82.9103 65.6452 82.9103 65.5498V63.5248C82.9103 63.2448 82.7913 63.0056 82.5519 62.8072C82.3118 62.6088 82.0235 62.5096 81.6862 62.5096H79.4167V65.5498C79.4167 65.6452 79.3585 65.6929 79.2434 65.6929H78.6277C78.5126 65.6929 78.4551 65.6452 78.4551 65.5498V58.5873C78.4551 58.3784 78.5424 58.2015 78.7176 58.0556C78.8969 57.9109 79.1111 57.8379 79.3585 57.8379H81.4938V57.8543C82.169 57.9214 82.7331 58.1657 83.1868 58.5873C83.6483 59.0161 83.8792 59.5143 83.8792 60.0806V60.7028ZM81.6862 61.7119C82.0235 61.7119 82.3118 61.6133 82.5519 61.4148C82.7913 61.2164 82.9103 60.9791 82.9103 60.7028V60.0806C82.9103 59.6843 82.7397 59.3438 82.3978 59.0604C82.0559 58.7733 81.6453 58.6296 81.1664 58.6296H79.4167V61.7119H81.6862Z" fill="white"/>
<path d="M90.7862 57.8379C91.5341 57.8379 92.1729 58.0578 92.7034 58.4969C93.233 58.9326 93.4982 59.4611 93.4982 60.0806V65.5498C93.4982 65.6452 93.4387 65.6929 93.319 65.6929H92.71C92.5903 65.6929 92.5301 65.6452 92.5301 65.5498V62.5891H89.0364V65.5498C89.0364 65.6452 88.9782 65.6929 88.8632 65.6929H88.2474C88.1318 65.6929 88.0742 65.6452 88.0742 65.5498V60.0806C88.0742 59.4611 88.3394 58.9326 88.8698 58.4969C89.3995 58.0578 90.0383 57.8379 90.7862 57.8379ZM92.5301 61.787V60.0806C92.5301 59.6843 92.3594 59.3438 92.0175 59.0604C91.675 58.7733 91.265 58.6296 90.7862 58.6296C90.3035 58.6296 89.8908 58.7733 89.5489 59.0604C89.207 59.3438 89.0364 59.6843 89.0364 60.0806V61.787H92.5301Z" fill="white"/>
<path d="M103.39 57.832C103.505 57.832 103.563 57.8813 103.563 57.9805V58.4856C103.563 58.5847 103.505 58.6341 103.39 58.6341H100.819V65.5449C100.819 65.644 100.761 65.6934 100.646 65.6934H100.03C99.9153 65.6934 99.8577 65.644 99.8577 65.5449V58.6341H97.2866C97.1708 58.6341 97.1133 58.5847 97.1133 58.4856V57.9805C97.1133 57.8813 97.1708 57.832 97.2866 57.832H103.39Z" fill="white"/>
<path d="M108.694 65.5498C108.694 65.6452 108.638 65.6929 108.527 65.6929H107.906C107.79 65.6929 107.732 65.6452 107.732 65.5498V57.9816C107.732 57.8857 107.79 57.8379 107.906 57.8379H108.527C108.638 57.8379 108.694 57.8857 108.694 57.9816V65.5498Z" fill="white"/>
</svg>
