<svg width="50" height="50" viewBox="0 0 50 50" fill="none" xmlns="http://www.w3.org/2000/svg">
<path d="M25 50C38.8071 50 50 38.8071 50 25C50 11.1929 38.8071 0 25 0C11.1929 0 0 11.1929 0 25C0 38.8071 11.1929 50 25 50Z" fill="#F5F5F5"/>
<path d="M25 49.5C38.531 49.5 49.5 38.531 49.5 25C49.5 11.469 38.531 0.5 25 0.5C11.469 0.5 0.5 11.469 0.5 25C0.5 38.531 11.469 49.5 25 49.5Z" stroke="#F5F5F5"/>
<path d="M25 26.5396C26.3702 26.5396 27.7097 26.1333 28.849 25.372C29.9883 24.6108 30.8763 23.5288 31.4007 22.2628C31.925 20.9969 32.0622 19.6039 31.7949 18.26C31.5276 16.9161 30.8678 15.6817 29.8989 14.7128C28.93 13.7439 27.6955 13.084 26.3516 12.8167C25.0077 12.5494 23.6147 12.6866 22.3488 13.211C21.0829 13.7353 20.0009 14.6233 19.2396 15.7626C18.4783 16.9019 18.072 18.2414 18.072 19.6116C18.0726 21.4489 18.8026 23.2107 20.1018 24.5098C21.4009 25.809 23.1628 26.5391 25 26.5396ZM31.158 28.0796H28.507C27.4074 28.5867 26.2109 28.8492 25 28.8492C23.7891 28.8492 22.5926 28.5867 21.493 28.0796H18.842C17.209 28.0796 15.6428 28.7282 14.488 29.8829C13.3332 31.0375 12.6843 32.6036 12.684 34.2366V35.0066C12.6843 35.6189 12.9276 36.2061 13.3606 36.639C13.7936 37.072 14.3807 37.3153 14.993 37.3156H35.007C35.6193 37.3153 36.2065 37.072 36.6394 36.639C37.0724 36.2061 37.3158 35.6189 37.316 35.0066V34.2366C37.3147 32.6043 36.6653 31.0392 35.5106 29.8855C34.3559 28.7317 32.7904 28.0836 31.158 28.0836V28.0796Z" fill="#6A6565"/>
</svg>
