<svg width="229" height="229" viewBox="0 0 229 229" fill="none" xmlns="http://www.w3.org/2000/svg">
<path d="M114.5 229C177.737 229 229 177.737 229 114.5C229 51.2634 177.737 0 114.5 0C51.2634 0 0 51.2634 0 114.5C0 177.737 51.2634 229 114.5 229Z" fill="#F5F5F5"/>
<path d="M114.5 228.5C177.46 228.5 228.5 177.46 228.5 114.5C228.5 51.5395 177.46 0.5 114.5 0.5C51.5395 0.5 0.5 51.5395 0.5 114.5C0.5 177.46 51.5395 228.5 114.5 228.5Z" stroke="#F5F5F5"/>
<path d="M114 121.05C120.275 121.05 126.41 119.189 131.628 115.702C136.846 112.216 140.913 107.26 143.314 101.462C145.716 95.6645 146.344 89.2847 145.12 83.1296C143.896 76.9746 140.874 71.3209 136.436 66.8834C131.999 62.4458 126.345 59.4239 120.19 58.1995C114.035 56.9752 107.655 57.6036 101.857 60.0052C96.0593 62.4067 91.1038 66.4736 87.6173 71.6916C84.1307 76.9096 82.2698 83.0443 82.2698 89.3199C82.2719 97.7345 85.6156 105.804 91.5656 111.754C97.5157 117.704 105.585 121.048 114 121.05ZM142.2 128.101H130.063C125.026 130.424 119.546 131.626 114 131.626C108.454 131.626 102.973 130.424 97.9368 128.101H85.7918C82.0882 128.101 78.4208 128.83 74.9992 130.248C71.5776 131.665 68.4686 133.743 65.85 136.362C63.2313 138.981 61.1542 142.09 59.7372 145.512C58.3203 148.934 57.5913 152.601 57.5918 156.305V159.831C57.5926 162.636 58.7072 165.325 60.6907 167.309C62.6741 169.292 65.3639 170.406 68.1688 170.407H159.832C162.636 170.406 165.326 169.292 167.309 167.308C169.292 165.325 170.407 162.636 170.408 159.831V156.305C170.408 152.601 169.679 148.933 168.262 145.511C166.845 142.089 164.767 138.98 162.148 136.36C159.529 133.741 156.42 131.664 152.998 130.247C149.576 128.829 145.908 128.1 142.204 128.101H142.2Z" fill="#6A6565"/>
</svg>
